<svg width="26" height="26" viewBox="0 0 26 26" fill="none" xmlns="http://www.w3.org/2000/svg">
<rect width="25.9988" height="26" rx="12.9994" fill="#971E31"/>
<path d="M16.7529 8.36866L16.7529 8.36867L17.6319 9.24785L16.7529 8.36866ZM16.7529 8.36866C16.4404 8.05625 16.0306 7.9 15.6214 7.9C15.2121 7.9 14.8022 8.05628 14.4899 8.36867L9.00461 13.853C8.71137 14.1462 8.51137 14.5197 8.43029 14.9263C8.43028 14.9264 8.43028 14.9264 8.43028 14.9264L7.90961 17.5308L8.00764 17.5506L7.90958 17.531L7.90959 17.531C7.85004 17.8264 8.07774 18.1 8.34738 18.1C8.37858 18.1 8.41017 18.0969 8.4419 18.0906L8.44194 18.0906M16.7529 8.36866L8.44194 18.0906M8.44194 18.0906L11.0471 17.5696L11.0471 17.5696M8.44194 18.0906L11.0471 17.5696M11.0471 17.5696C11.4536 17.4883 11.8271 17.2886 12.1202 16.9954M11.0471 17.5696L12.1202 16.9954M12.1202 16.9954C12.1202 16.9954 12.1202 16.9954 12.1202 16.9954M12.1202 16.9954L12.1202 16.9954M12.1202 16.9954L17.6047 11.5118C18.2588 10.8856 18.2589 9.87166 17.6321 9.24805L12.1202 16.9954ZM11.2993 16.1196L11.299 16.1199C11.173 16.246 11.0142 16.331 10.8391 16.3659L10.8391 16.3659L10.8376 16.3663L9.30047 16.6982L9.6075 15.1624C9.6075 15.1624 9.6075 15.1624 9.6075 15.1624C9.64252 14.9874 9.7276 14.8283 9.85372 14.7023L9.85376 14.7023L13.3555 11.2011L14.8003 12.6457L11.2993 16.1196ZM15.6479 11.7998L14.2029 10.355L15.3392 9.21884C15.441 9.11712 15.5596 9.10169 15.622 9.10169C15.6845 9.10169 15.8031 9.11711 15.9048 9.21882L15.9048 9.21883L16.784 10.0982L16.7848 10.099C16.8867 10.1986 16.9019 10.3177 16.9019 10.3781C16.9019 10.4418 16.8866 10.5614 16.7843 10.6637L15.6479 11.7998Z" fill="white" stroke="white" stroke-width="0.2"/>
</svg>
