<svg width="7" height="11" viewBox="0 0 7 11" fill="none" xmlns="http://www.w3.org/2000/svg">
<path d="M7 5.5C7 5.63154 6.97328 5.7588 6.91985 5.88179C6.86641 6.00544 6.79516 6.10837 6.70611 6.19058L1.79008 10.7287C1.59415 10.9096 1.34478 11 1.04198 11C0.739185 11 0.489821 10.9096 0.293893 10.7287C0.0979639 10.5478 -2.9827e-08 10.3176 -4.20453e-08 10.0381C-5.42635e-08 9.7586 0.0979639 9.5284 0.293893 9.34753L4.46183 5.5L0.293892 1.65247C0.0979635 1.4716 -4.26562e-07 1.24141 -4.3878e-07 0.961884C-4.50998e-07 0.682362 0.0979635 0.452168 0.293892 0.271301C0.489821 0.090435 0.739185 -3.23108e-08 1.04198 -4.55466e-08C1.34478 -5.87823e-08 1.59415 0.090435 1.79008 0.271301L6.70611 4.80942C6.81298 4.90807 6.8885 5.01495 6.93267 5.13005C6.97756 5.24514 7 5.36846 7 5.5Z" fill="#8C8C8C"/>
</svg>
