<svg width="27" height="27" viewBox="0 0 27 27" fill="none" xmlns="http://www.w3.org/2000/svg">
<path d="M26.1 25.4864C26.1 25.1716 25.84 24.8978 25.5294 24.8744L25.5277 24.8727H25.4863H2.12721V1.5136C2.12721 1.18434 1.84256 0.9 1.51361 0.9C1.18434 0.9 0.9 1.18465 0.9 1.5136V25.4864C0.9 25.8157 1.18465 26.1 1.51361 26.1H25.4864C25.8157 26.1 26.1 25.8154 26.1 25.4864Z" fill="#8A182A" stroke="#8A182A" stroke-width="0.2"/>
<path d="M4.93817 22.6752H8.36285C8.69211 22.6752 8.97645 22.3905 8.97645 22.0616V11.7875C8.97645 11.4583 8.69181 11.1739 8.36285 11.1739H4.93817C4.6089 11.1739 4.32456 11.4586 4.32456 11.7875V22.0616C4.32456 22.3908 4.60894 22.6752 4.93817 22.6752ZM5.55177 12.4011H7.74899V21.4478H5.55177V12.4011Z" fill="#8A182A" stroke="#8A182A" stroke-width="0.2"/>
<path d="M20.5136 22.6754H23.9383C24.2676 22.6754 24.5519 22.3907 24.5519 22.0618V3.22601C24.5519 2.89674 24.2672 2.6124 23.9383 2.6124H20.5136C20.1843 2.6124 19.9 2.89705 19.9 3.22601V22.0618C19.9 22.391 20.1844 22.6754 20.5136 22.6754ZM21.1272 3.83961H23.3244V21.448H21.1272V3.83961Z" fill="#8A182A" stroke="#8A182A" stroke-width="0.2"/>
<path d="M12.5136 22.6751H15.9383C16.2676 22.6751 16.5519 22.3904 16.5519 22.0615V8.36273C16.5519 8.03346 16.2672 7.74912 15.9383 7.74912H12.5136C12.1843 7.74912 11.9 8.03377 11.9 8.36273V22.0615C11.9 22.3907 12.1844 22.6751 12.5136 22.6751ZM13.1272 8.97633H15.3244V21.4477H13.1272V8.97633Z" fill="#8A182A" stroke="#8A182A" stroke-width="0.2"/>
</svg>
