<svg width="21" height="24" viewBox="0 0 21 24" fill="none" xmlns="http://www.w3.org/2000/svg">
<path d="M9.70781 0.75C9.70781 0.335812 10.0875 0 10.4578 0C10.9125 0 11.25 0.335812 11.25 0.75V1.53703C15.0422 1.91344 18 5.10938 18 9V10.3641C18 12.4125 18.8156 14.3766 20.2641 15.8297L20.3906 15.9562C20.7797 16.3453 21 16.8328 21 17.4234C21 18.5719 20.0719 19.5 18.9234 19.5H2.07562C0.929531 19.5 0 18.5719 0 17.4234C0 16.8328 0.218719 16.3453 0.607969 15.9562L0.736875 15.8297C2.18578 14.3766 3 12.4125 3 10.3641V9C3 5.10938 5.95781 1.91344 9.75 1.53703L9.70781 0.75ZM10.4578 3C7.18594 3 4.45781 5.68594 4.45781 9V10.3641C4.45781 12.8109 3.52781 15.1594 1.79766 16.8891L1.66875 17.0156C1.56047 17.1234 1.45781 17.2734 1.45781 17.4234C1.45781 17.7422 1.75781 18 2.07562 18H18.9234C19.2422 18 19.5 17.7422 19.5 17.4234C19.5 17.2734 19.4391 17.1234 19.3312 17.0156L19.2047 16.8891C17.4703 15.1594 16.5 12.8109 16.5 10.3641V9C16.5 5.68594 13.8141 3 10.4578 3ZM10.4578 22.5C11.1516 22.5 11.7094 22.0828 11.9156 21.5016C12.0516 21.1078 12.4828 20.8641 12.8719 21.0422C13.2609 21.1828 13.4672 21.6094 13.3312 21.9984C12.9187 23.1656 11.8078 24 10.4578 24C9.19219 24 8.08125 23.1656 7.66875 21.9984C7.53281 21.6094 7.73906 21.1828 8.12812 21.0422C8.51719 20.8641 8.94844 21.1078 9.08438 21.5016C9.29063 22.0828 9.84844 22.5 10.4578 22.5Z" fill="#111827"/>
</svg>
