<svg width="29" height="30" viewBox="0 0 29 30" fill="none" xmlns="http://www.w3.org/2000/svg">
<path d="M2.74984 29.9415H22.2548C22.7615 29.9415 23.2478 29.7334 23.6072 29.3627L28.3457 24.479C28.7085 24.1056 28.9124 23.5968 28.9124 23.0665V5.29504C28.9124 3.71903 27.6811 2.44141 26.1623 2.44141H24.498V4.81236C24.498 6.01379 23.5593 6.98778 22.4014 6.98778H22.2649C21.1068 6.98778 20.1681 6.01379 20.1681 4.81212V2.44141H8.80166V4.81212C8.80166 6.01379 7.86298 6.98778 6.70488 6.98778H6.56863C5.41053 6.98778 4.47185 6.01379 4.47185 4.81212V2.44141H2.75018C1.2313 2.44141 0 3.71909 0 5.29504V27.0879C0 28.6637 1.23136 29.9414 2.75001 29.9414L2.74984 29.9415ZM23.1182 27.6733V24.5809C23.1182 23.9919 23.5803 23.5129 24.1474 23.5129H26.9279L23.1182 27.6733ZM27.1912 10.0906V21.7275H24.1474C22.6308 21.7275 21.3972 23.0077 21.3972 24.5811V28.156H2.74984C2.18245 28.156 1.72063 27.6771 1.72063 27.0883V10.0907L27.1912 10.0906Z" fill="#9F2234"/>
<path d="M6.20593 17.2392H8.65889C9.18865 17.2392 9.61848 16.5706 9.61848 15.7456V14.1963C9.61848 13.3715 9.18884 12.7026 8.65889 12.7026H6.20593C5.67616 12.7026 5.24634 13.3713 5.24634 14.1963V15.7456C5.24634 16.5706 5.67615 17.2392 6.20593 17.2392Z" fill="#9F2234"/>
<path d="M13.2013 17.2392H15.6542C16.184 17.2392 16.6138 16.5706 16.6138 15.7456V14.1963C16.6138 13.3715 16.1842 12.7026 15.6542 12.7026H13.2013C12.6715 12.7026 12.2417 13.3713 12.2417 14.1963V15.7456C12.2417 16.5706 12.6715 17.2392 13.2013 17.2392Z" fill="#9F2234"/>
<path d="M20.1969 17.2392H22.6499C23.1796 17.2392 23.6094 16.5706 23.6094 15.7456V14.1963C23.6094 13.3715 23.1798 12.7026 22.6499 12.7026H20.1969C19.6671 12.7026 19.2373 13.3713 19.2373 14.1963V15.7456C19.2373 16.5706 19.6671 17.2392 20.1969 17.2392Z" fill="#9F2234"/>
<path d="M6.20593 24.4975H8.65889C9.18865 24.4975 9.61848 23.8289 9.61848 23.0039V21.4546C9.61848 20.6298 9.18884 19.9609 8.65889 19.9609H6.20593C5.67616 19.9609 5.24634 20.6296 5.24634 21.4546V23.0039C5.24634 23.8289 5.67615 24.4975 6.20593 24.4975Z" fill="#9F2234"/>
<path d="M13.2013 24.4975H15.6542C16.184 24.4975 16.6138 23.8289 16.6138 23.0039V21.4546C16.6138 20.6298 16.1842 19.9609 15.6542 19.9609H13.2013C12.6715 19.9609 12.2417 20.6296 12.2417 21.4546V23.0039C12.2417 23.8289 12.6715 24.4975 13.2013 24.4975Z" fill="#9F2234"/>
<path d="M6.56828 6.05405H6.70452C7.364 6.05405 7.90049 5.49741 7.90049 4.8131V1.24095C7.90049 0.556667 7.36403 0 6.70452 0H6.56828C5.9088 0 5.37231 0.556643 5.37231 1.24095V4.81286C5.37231 5.49738 5.90878 6.05405 6.56828 6.05405Z" fill="#9F2234"/>
<path d="M22.2646 6.05405H22.4008C23.0603 6.05405 23.5968 5.49741 23.5968 4.8131V1.24095C23.5968 0.556667 23.0603 0 22.4008 0H22.2646C21.6051 0 21.0686 0.556643 21.0686 1.24095V4.81286C21.0684 5.49738 21.6048 6.05405 22.2646 6.05405Z" fill="#9F2234"/>
</svg>
