<svg width="17" height="16" viewBox="0 0 17 16" fill="none" xmlns="http://www.w3.org/2000/svg">
<path d="M5.22707 7.55723L5.21778 7.5668L1.91738 10.9514C1.50892 11.3771 1.30903 11.9316 1.30903 12.5003C1.30903 13.0547 1.50892 13.5998 1.91738 14.0255L1.94515 14.0492C2.34888 14.4557 2.87804 14.6611 3.40719 14.6611C3.95047 14.6611 4.48893 14.4508 4.90196 14.0255L8.63001 10.1865L12.6318 6.06586C12.8126 5.87941 12.8963 5.63069 12.8963 5.38696C12.8963 5.14782 12.8128 4.89936 12.6318 4.71303C12.4506 4.52658 12.2141 4.44045 11.9725 4.44045C11.7356 4.44045 11.499 4.52646 11.3178 4.71303L5.57051 10.6454C5.30605 10.899 4.90193 10.899 4.63762 10.6454C4.38704 10.3731 4.38704 9.94749 4.63762 9.68476L10.3942 3.7616C10.8307 3.32185 11.4015 3.09228 11.9726 3.09228C12.5483 3.09228 13.1191 3.32172 13.5511 3.7616C13.9875 4.21104 14.2054 4.80368 14.2054 5.38699C14.2054 5.97501 13.9875 6.56777 13.5511 7.01709L9.55388 11.1332L9.54024 11.1478L9.53094 11.1574L5.82144 14.9769C5.15781 15.6558 4.28502 16 3.4074 16C2.55318 16 1.69451 15.675 1.03054 15.0152L0.993486 14.9771C0.334211 14.2886 0 13.3994 0 12.5009C0 11.5925 0.334334 10.6893 0.993486 10.0054L4.71226 6.18106L9.41024 1.34325C10.2781 0.444484 11.4158 0 12.5527 0C13.7041 0 14.8369 0.444738 15.7002 1.34325C16.5637 2.22773 17 3.39884 17 4.57482C17 5.74593 16.5635 6.92201 15.7002 7.81148L9.26594 14.4515C9.00595 14.7051 8.58819 14.7051 8.33738 14.4515C8.08221 14.1742 8.08221 13.7536 8.33738 13.4858L14.7766 6.86002C15.3845 6.23382 15.691 5.40206 15.691 4.57489C15.691 3.75267 15.3847 2.91592 14.7766 2.28975C14.1682 1.65871 13.3698 1.35283 12.5527 1.35283C11.7497 1.35283 10.9466 1.65884 10.3429 2.28975L5.22707 7.55723Z" fill="#9D9D9D"/>
</svg>
