<svg width="50" height="33" viewBox="0 0 50 33" fill="none" xmlns="http://www.w3.org/2000/svg">
<path d="M24.5891 29.3736C17.3534 29.3736 10.1177 29.3745 2.88203 29.3727C1.47441 29.3727 0.460183 28.6463 0.127376 27.3746C0.034296 27.0192 0.00619617 26.6354 0.00619617 26.2653C-0.000828778 19.7697 -0.0017069 13.2749 0.00268369 6.77927C0.00443993 4.77475 1.06872 3.67745 2.99092 3.67745C17.3938 3.67653 31.7967 3.67653 46.1996 3.67745C47.6994 3.67745 48.7339 4.41847 49.0561 5.75084C49.1343 6.07406 49.1457 6.42208 49.1466 6.75815C49.1518 13.2713 49.1527 19.7853 49.1483 26.2984C49.1466 28.2763 48.0858 29.3727 46.1935 29.3736C38.992 29.3745 31.7906 29.3736 24.5891 29.3736ZM24.5452 27.5435C31.1487 27.5435 37.7521 27.5178 44.3556 27.5601C46.1627 27.572 47.4272 26.3562 47.407 24.3894C47.3526 19.1443 47.3535 13.8975 47.407 8.65249C47.4272 6.68194 46.1478 5.48914 44.3986 5.49281C31.1917 5.51944 17.9848 5.50751 4.77789 5.50751C2.81442 5.50751 1.7677 6.59012 1.76682 8.63413C1.76331 13.8975 1.76419 19.1618 1.76946 24.4252C1.76946 24.7787 1.78351 25.1451 1.86693 25.4839C2.19447 26.8025 3.21747 27.5417 4.68305 27.5426C11.3041 27.5444 17.9251 27.5435 24.5452 27.5435Z" fill="#9F2234"/>
<path d="M21.0308 1.8168C17.5263 1.8168 14.056 1.8168 10.5347 1.8168C10.5347 1.50827 10.5127 1.22545 10.5391 0.948141C10.597 0.332918 10.9132 0.0298973 11.5156 0.0197966C12.3164 0.00602294 13.1181 0.0152054 13.9198 0.0152054C15.7955 0.0152054 17.6712 0.0152054 19.5468 0.0152054C20.9404 0.0152054 21.1626 0.276905 21.0308 1.8168Z" fill="#9F2234"/>
<path d="M28.1005 1.8079C28.1005 1.53243 28.0935 1.28634 28.1014 1.04025C28.1242 0.354322 28.4246 0.028345 29.0831 0.0200808C30.1395 0.00630719 31.1959 0.0154896 32.2523 0.0154896C33.8882 0.0154896 35.525 0.0540559 37.1592 0.00263422C38.3534 -0.0350138 38.7749 0.319428 38.573 1.8079C35.1132 1.8079 31.6481 1.8079 28.1005 1.8079Z" fill="#9F2234"/>
<path d="M14.8939 31.2461C14.8939 31.8264 14.8939 32.3893 14.8939 32.9944C12.5827 32.9944 10.2768 32.9944 7.93921 32.9944C7.93921 32.4141 7.93921 31.8512 7.93921 31.2461C10.2539 31.2461 12.5599 31.2461 14.8939 31.2461Z" fill="#9F2234"/>
<path d="M41.2232 31.2393C41.2232 31.8361 41.2232 32.3999 41.2232 32.9986C38.9103 32.9986 36.6175 32.9986 34.2834 32.9986C34.2834 32.4284 34.2834 31.8517 34.2834 31.2393C36.5771 31.2393 38.869 31.2393 41.2232 31.2393Z" fill="#9F2234"/>
<path d="M15.8149 17.4589C16.7414 17.4589 17.5914 17.457 18.4423 17.4616C18.5433 17.4625 18.6486 17.48 18.7435 17.5158C19.2501 17.7095 19.4503 18.3753 19.3019 19.355C19.2247 19.8683 18.9165 20.1631 18.3913 20.1796C17.846 20.1971 17.2998 20.198 16.7554 20.1815C16.153 20.164 15.8386 19.8445 15.8193 19.2246C15.8009 18.659 15.8149 18.0915 15.8149 17.4589Z" fill="#9F2234"/>
<path d="M42.1371 16.579C42.1371 17.4165 42.1468 18.2539 42.1345 19.0904C42.124 19.8379 41.807 20.1703 41.1062 20.1832C40.5785 20.1933 40.0498 20.1988 39.5221 20.1767C38.9785 20.1538 38.6501 19.8471 38.644 19.2768C38.6229 17.4422 38.6229 15.6075 38.644 13.7729C38.6501 13.2027 38.9785 12.895 39.523 12.873C40.0674 12.851 40.6136 12.8537 41.158 12.8684C41.7973 12.8849 42.1205 13.221 42.1327 13.907C42.1494 14.7976 42.1371 15.6883 42.1371 16.579Z" fill="#9F2234"/>
<path d="M33.35 16.5524C33.35 17.4073 33.3579 18.2631 33.3483 19.118C33.3404 19.8397 33.0339 20.1675 32.3551 20.1841C31.8441 20.196 31.333 20.1969 30.8219 20.1831C30.1958 20.1657 29.8613 19.8388 29.8569 19.1988C29.8446 17.4174 29.8446 15.6351 29.8569 13.8537C29.8613 13.2293 30.1844 12.8923 30.771 12.8712C31.3154 12.8519 31.8616 12.8528 32.4061 12.8702C33.0234 12.8895 33.3377 13.2238 33.3474 13.8803C33.3597 14.7701 33.35 15.6617 33.35 16.5524Z" fill="#9F2234"/>
<path d="M10.5278 16.5548C10.5286 17.3922 10.5339 18.2297 10.5269 19.0671C10.5198 19.8632 10.2292 20.1727 9.48279 20.1855C8.98841 20.1938 8.49403 20.1975 8.00053 20.1828C7.37794 20.1644 7.03811 19.8375 7.03284 19.1957C7.01791 17.4143 7.01879 15.632 7.03284 13.8506C7.03811 13.2298 7.37004 12.8919 7.95399 12.8708C8.49842 12.8515 9.04461 12.8524 9.58904 12.869C10.2064 12.8882 10.5137 13.2188 10.5234 13.8818C10.5374 14.7725 10.5269 15.6632 10.5278 16.5548Z" fill="#9F2234"/>
<path d="M44.3442 7.33858C31.1733 7.33766 18.0016 7.33766 4.83066 7.33858C3.7857 7.33858 3.52578 7.60762 3.52578 8.69023C3.5249 13.8636 3.52578 19.0379 3.52578 24.2113C3.52578 25.4904 3.73565 25.7126 4.94306 25.7126C11.4771 25.7126 18.0121 25.7126 24.5462 25.7126C31.1487 25.7126 37.7513 25.7126 44.3539 25.7117C45.3628 25.7117 45.6377 25.4271 45.6377 24.3876C45.6386 19.16 45.6386 13.9325 45.6377 8.70584C45.6377 7.61864 45.3743 7.33858 44.3442 7.33858ZM25.4436 20.2454C25.3962 20.7578 25.0081 21.1196 24.562 21.1076C24.1089 21.0948 23.7383 20.7257 23.719 20.2078C23.6953 19.5861 23.6944 18.9617 23.7199 18.3391C23.7418 17.8121 24.1036 17.4677 24.5734 17.4641C25.0406 17.4604 25.3988 17.7965 25.4454 18.3244C25.4735 18.6422 25.4506 18.9645 25.4506 19.2849C25.4489 19.6054 25.4726 19.9286 25.4436 20.2454ZM25.4252 14.8177C25.3918 15.308 24.987 15.6055 24.5348 15.5835C24.0843 15.5605 23.755 15.23 23.719 14.7249C23.6962 14.4063 23.7146 14.0849 23.7146 13.7644C23.7155 13.444 23.6962 13.1226 23.7207 12.804C23.7576 12.3182 24.1141 11.9656 24.5488 11.9454C24.9747 11.9252 25.3988 12.2594 25.4278 12.7397C25.4708 13.4293 25.4726 14.1281 25.4252 14.8177Z" fill="#9F2234"/>
<path d="M11.245 21.154C12.895 21.154 13.995 19.713 13.995 16.897C13.995 14.092 12.895 12.717 11.245 12.717C9.584 12.717 8.484 14.092 8.484 16.897C8.484 19.713 9.584 21.154 11.245 21.154ZM11.245 19.889C10.541 19.889 10.013 19.185 10.013 16.897C10.013 14.62 10.541 13.96 11.245 13.96C11.949 13.96 12.466 14.62 12.466 16.897C12.466 19.185 11.949 19.889 11.245 19.889ZM17.9533 21.154C19.3393 21.154 20.5163 20.109 20.5163 18.437C20.5163 16.688 19.5373 15.885 18.1733 15.885C17.6233 15.885 16.8643 16.237 16.4353 16.842L16.5013 17.942C16.9083 17.271 17.4253 17.029 17.8763 17.029C18.5693 17.029 19.0313 17.469 19.0313 18.437C19.0313 19.427 18.5363 19.933 17.9313 19.933C17.1283 19.933 16.5123 19.152 16.5123 17.04C16.5123 14.774 17.2933 14.015 18.2833 14.015C18.7453 14.015 19.2513 14.279 19.5263 14.598L20.3953 13.641C19.9003 13.124 19.1743 12.717 18.1843 12.717C16.5343 12.717 15.0273 14.015 15.0273 17.04C15.0273 19.911 16.4133 21.154 17.9533 21.154Z" fill="white"/>
<path d="M29.462 21H34.918V19.636H33.158C32.773 19.636 32.234 19.691 31.827 19.735C33.312 18.283 34.544 16.699 34.544 15.214C34.544 13.696 33.51 12.717 31.981 12.717C30.87 12.717 30.133 13.146 29.385 13.949L30.276 14.829C30.694 14.367 31.167 13.982 31.772 13.982C32.553 13.982 32.982 14.488 32.982 15.302C32.982 16.556 31.684 18.085 29.462 20.076V21ZM37.5233 21H39.1623C39.3053 17.821 39.5473 16.149 41.4393 13.839V12.86H36.0383V14.213H39.7013C38.1393 16.369 37.6773 18.184 37.5233 21Z" fill="white"/>
</svg>
