<svg width="24" height="24" viewBox="0 0 24 24" fill="currentColor" xmlns="http://www.w3.org/2000/svg">
<path d="M19.3306 16.4272H16.842C16.732 16.4272 16.6265 16.4772 16.5487 16.5661C16.4709 16.6549 16.4272 16.7756 16.4272 16.9013V19.2713C16.4272 19.397 16.4709 19.5177 16.5487 19.6065C16.6265 19.6954 16.732 19.7454 16.842 19.7454H19.3306C19.4406 19.7454 19.5461 19.6954 19.6239 19.6065C19.7017 19.5177 19.7454 19.397 19.7454 19.2713V16.9013C19.7454 16.7756 19.7017 16.6549 19.6239 16.5661C19.5461 16.4772 19.4406 16.4272 19.3306 16.4272ZM19.3306 17.3753H18.7085V16.9013H19.3306V17.3753ZM18.2937 16.9013V17.8493H17.8789V16.9013H18.2937ZM17.4642 16.9013V17.3753H16.842V16.9013H17.4642ZM16.842 19.2713V17.8493H17.4642V18.0863C17.4642 18.1492 17.486 18.2095 17.5249 18.2539C17.5638 18.2983 17.6165 18.3233 17.6715 18.3233H18.5011C18.5561 18.3233 18.6088 18.2983 18.6477 18.2539C18.6866 18.2095 18.7085 18.1492 18.7085 18.0863V17.8493H19.3306V19.2713H16.842Z" fill="currentColor"/>
<path d="M12.378 22.203V12.3782H22.2027C22.1807 12.9548 22.1103 13.5284 21.9921 14.0933L21.9819 14.1421L22.0307 14.1525L22.7019 14.2944L22.6995 14.3058H22.7612H22.7613L22.7664 14.257L22.8101 14.2662C23.3047 11.9301 23.0314 9.49676 22.0306 7.32898C21.03 5.16096 19.3558 3.37431 17.2574 2.23508L17.2335 2.27902L17.2574 2.23508C15.1588 1.09584 12.7482 0.66512 10.3853 1.00708C8.02195 1.34903 5.83255 2.44518 4.14303 4.1325C2.45342 5.81982 1.35429 8.00783 1.0092 10.3705C0.664115 12.7333 1.09155 15.1442 2.22799 17.2443C3.36439 19.3442 5.14893 21.021 7.31556 22.0243C9.48227 23.0277 11.9152 23.3045 14.2519 22.813L14.3008 22.8028L14.2906 22.7539L14.1401 22.0333L14.1299 21.9844L14.081 21.9946C13.52 22.1111 12.9503 22.1809 12.378 22.203ZM7.9717 5.58382C8.83152 3.41709 10.1099 1.97962 11.5421 1.74354V6.38065C10.3138 6.33148 9.10439 6.06154 7.9717 5.58382ZM6.02732 11.5421H1.71734C1.82325 8.92185 2.93209 6.44233 4.81438 4.61651C5.46151 5.16179 6.16881 5.63124 6.92257 6.01572C6.34907 7.80258 6.04722 9.66565 6.02732 11.5421ZM11.5421 22.1779C10.1098 21.9411 8.83144 20.5035 7.97163 18.3373C9.10434 17.8596 10.3138 17.5897 11.5421 17.5406V22.1779ZM6.86339 12.3779H11.5423L11.5421 16.7044C10.2171 16.7535 8.91193 17.0399 7.6883 17.5502C7.16321 15.8754 6.88548 14.133 6.86339 12.3779ZM12.3781 6.37961V1.74333C13.8104 1.97943 15.0887 3.41762 15.9485 5.58294C14.8158 6.06065 13.6065 6.33058 12.3781 6.37961ZM7.68813 6.36994C8.91181 6.88028 10.2171 7.1667 11.5421 7.2157V11.5422H6.86322C6.88531 9.7873 7.16307 8.04492 7.68813 6.36994ZM12.378 11.5426L12.3781 7.21687C13.7031 7.16781 15.0083 6.88126 16.2319 6.37111C16.7569 8.0456 17.0348 9.78765 17.0569 11.5426H12.378ZM19.1077 4.61646C20.9895 6.44264 22.0978 8.92238 22.2033 11.5422H17.8932C17.8738 9.6657 17.5724 7.80278 16.9993 6.01581C17.7532 5.63126 18.4605 5.16177 19.1077 4.61646ZM14.6878 2.07499C16.0762 2.4594 17.3683 3.13314 18.4789 4.05239C17.9318 4.50229 17.3395 4.8944 16.7115 5.22252C16.2723 4.0389 15.5816 2.96503 14.6878 2.07499ZM9.23253 2.07498C8.33865 2.96503 7.64798 4.03889 7.20874 5.22252C6.58079 4.89442 5.98848 4.50229 5.44134 4.05238C6.55202 3.13313 7.8441 2.45939 9.23253 2.07498ZM1.71699 12.378H6.02714C6.04653 14.2546 6.34792 16.1175 6.92094 17.9044C6.16711 18.289 5.45977 18.7585 4.81259 19.3038C2.93076 17.4776 1.82253 14.9979 1.71699 12.378ZM9.23252 21.8453C7.84409 21.4608 6.55203 20.7871 5.44135 19.8679C5.98853 19.418 6.5808 19.0258 7.20875 18.6977C7.64798 19.8814 8.33865 20.9552 9.23252 21.8453Z" fill="currentColor" stroke="currentColor" stroke-width="0.1"/>
<path d="M18.0865 21.4546H18.0865C18.9795 21.4536 19.8356 21.0985 20.4671 20.4671L20.4671 20.4671C21.0985 19.8356 21.4536 18.9795 21.4546 18.0865V18.0865C21.4546 17.1932 21.0997 16.3365 20.4681 15.7049C19.8364 15.0732 18.9798 14.7184 18.0865 14.7184C17.1932 14.7184 16.3365 15.0732 15.7049 15.7049C15.0732 16.3365 14.7184 17.1932 14.7184 18.0865C14.7184 18.9798 15.0732 19.8364 15.7049 20.4681C16.3365 21.0997 17.1932 21.4546 18.0865 21.4546ZM15.3845 15.3845C16.1011 14.6679 17.0731 14.2653 18.0865 14.2653V14.2153L18.0864 14.2653C19.0995 14.2664 20.0708 14.6694 20.7872 15.3857C21.5036 16.1021 21.9065 17.0735 21.9076 18.0865C21.9076 19.0999 21.505 20.0719 20.7884 20.7884C20.0718 21.505 19.0999 21.9076 18.0865 21.9076C17.0731 21.9076 16.1011 21.505 15.3845 20.7884C14.6679 20.0718 14.2653 19.0999 14.2653 18.0865C14.2653 17.0731 14.6679 16.1011 15.3845 15.3845Z" fill="currentColor" stroke="currentColor" stroke-width="0.1"/>
</svg>
