<svg width="30" height="31" viewBox="0 0 30 31" fill="none" xmlns="http://www.w3.org/2000/svg">
<path d="M28.2652 22.6787L28.2652 22.6788L23.7601 27.1838C22.8339 28.1151 21.5737 28.637 20.2603 28.6336M28.2652 22.6787L20.2604 28.5836M28.2652 22.6787C29.0835 21.8592 29.448 20.6905 29.2402 19.5515C29.0324 18.4122 28.279 17.4472 27.2242 16.9693L27.2035 17.0149L27.2242 16.9693C26.1693 16.4915 24.9473 16.5614 23.9538 17.1567L23.9538 17.1567L19.2499 19.9791V18.7835C19.2499 18.0277 18.9498 17.3028 18.4152 16.7684C17.8808 16.2338 17.1558 15.9337 16.4001 15.9337H8.04921C8.03657 15.5671 7.88534 15.2184 7.62527 14.9583C7.3534 14.6864 6.98465 14.5335 6.59991 14.5335H2.39991C2.01539 14.5335 1.64668 14.6864 1.37481 14.9583C1.10268 15.2302 0.95 15.5989 0.95 15.9837V28.5837C0.95 28.9681 1.10268 29.3369 1.37478 29.6087L28.2652 22.6787ZM20.2603 28.6336L20.2604 28.5836M20.2603 28.6336H20.2604V28.5836M20.2603 28.6336H8.04915M20.2604 28.5836H8.05001C8.05001 28.6003 8.04972 28.617 8.04915 28.6336M8.04915 28.6336C8.0365 29 7.88527 29.3487 7.62521 29.6088M8.04915 28.6336H8.00001V28.5836C8.00001 28.9549 7.85235 29.3109 7.58985 29.5734M7.62521 29.6088L7.58985 29.5734M7.62521 29.6088C7.62521 29.6088 7.62522 29.6088 7.62522 29.6087L7.58985 29.5734M7.62521 29.6088L7.58985 29.5734M17.3546 17.8291L17.3547 17.8291C17.608 18.0822 17.7502 18.4255 17.7502 18.7835V20.1334L14.7411 20.1336C14.327 20.1336 13.9913 20.4694 13.9913 20.8835C13.9913 21.2978 14.327 21.6335 14.7411 21.6335H18.8124C19.2021 21.6335 19.5846 21.5275 19.9189 21.3269L24.7138 18.4501H24.714L24.7259 18.4429C25.297 18.1008 25.9997 18.0605 26.6063 18.3354L26.6269 18.2899L26.6063 18.3354C27.2127 18.6102 27.6459 19.1649 27.7653 19.82L27.7653 19.82C27.885 20.4751 27.6754 21.1471 27.2049 21.6184L22.6998 26.1235L22.6997 26.1236C22.0543 26.7725 21.176 27.1361 20.2608 27.1335H20.2606H8.05022V17.4337L16.4003 17.4336C16.7582 17.4336 17.1015 17.5757 17.3546 17.8291ZM2.44985 16.0336H6.54985V28.5336H2.44985V16.0336Z" fill="#8A182A" stroke="#8A182A" stroke-width="0.1"/>
<path d="M20.8165 7.00683L20.805 7.01836L16.2432 11.5802C15.943 11.8792 15.4576 11.8792 15.1574 11.5802L20.8165 7.00683ZM20.8165 7.00683C21.4814 6.33378 21.74 5.35829 21.495 4.44377C21.2483 3.524 20.5299 2.8055 19.6101 2.55888C18.6999 2.31508 17.7293 2.57 17.0566 3.22793L17.0357 3.24883L16.2307 4.05391L16.2297 4.05491L16.2296 4.0549C15.9326 4.33561 15.468 4.33561 15.171 4.0549L15.0796 3.96856H15.0848L14.3651 3.24883C13.6917 2.57544 12.7103 2.31248 11.7905 2.55888C10.8707 2.80553 10.1522 3.524 9.90561 4.44377C9.65926 5.36353 9.92217 6.34496 10.5956 7.01836L15.1574 11.5802L20.8165 7.00683ZM15.7002 2.46309L15.4255 2.18836L15.4253 2.18814C14.3709 1.14676 12.8427 0.744191 11.412 1.13061C9.98124 1.51703 8.8637 2.63463 8.47728 4.06528C8.09087 5.49593 8.49341 7.02417 9.53482 8.07861L9.53504 8.07884L14.0969 12.6407L14.0969 12.6407C14.5223 13.0656 15.0989 13.3041 15.7002 13.3041C16.3015 13.3041 16.8781 13.0656 17.3035 12.6407L17.3036 12.6407L21.8652 8.07905C21.8653 8.07899 21.8653 8.07892 21.8654 8.07886C22.6545 7.29936 23.1002 6.23742 23.1038 5.12848C23.1071 4.0192 22.668 2.95432 21.8837 2.17006C21.0995 1.38581 20.0346 0.946679 18.9253 0.950019L18.9253 0.950019C17.8163 0.953577 16.7544 1.39926 15.9749 2.18845C15.9748 2.18849 15.9748 2.18854 15.9747 2.18858L15.7002 2.46309Z" fill="#8A182A" stroke="#8A182A" stroke-width="0.1"/>
</svg>
