<svg width="30" height="24" viewBox="0 0 30 24" fill="none" xmlns="http://www.w3.org/2000/svg">
<path d="M29.3391 10.9781L28.0205 9.65906C27.5811 9.2197 27.0052 9 26.4295 9C25.8539 9 25.2778 9.21975 24.8386 9.65906L16.612 17.8856C16.1932 18.3045 15.9075 18.8381 15.7917 19.4189L15.0108 23.3259C14.9391 23.6812 15.2156 24 15.5203 24C15.5571 24 15.5947 23.9963 15.6327 23.9887L19.5398 23.2073C20.1205 23.0911 20.654 22.8058 21.0726 22.387L29.2991 14.1605C30.2203 13.2797 30.2203 11.8547 29.3391 10.9781ZM20.0531 21.2859C19.8431 21.4959 19.5783 21.6378 19.2867 21.696L16.7578 22.2422L17.2631 19.7142C17.3214 19.4227 17.4633 19.1573 17.6735 18.9473L23.0313 13.5895L25.4107 15.9689L20.0531 21.2859ZM28.2797 13.1016L26.4694 14.9119L24.09 12.5325L25.9003 10.7222C26.0914 10.5311 26.3146 10.5025 26.4305 10.5025C26.5463 10.5025 26.7697 10.5311 26.9606 10.7222L28.2792 12.0413C28.4719 12.2297 28.5 12.4547 28.5 12.5672C28.5 12.6844 28.4719 12.9094 28.2797 13.1016ZM10.4578 12C13.7719 12 16.4578 9.31359 16.4578 6C16.4578 2.68641 13.7719 0 10.4578 0C7.18594 0 4.50001 2.68641 4.50001 6C4.50001 9.31359 7.18594 12 10.4578 12ZM10.4578 1.5C12.9394 1.5 14.9578 3.51844 14.9578 6C14.9578 8.48109 12.9394 10.5 10.4578 10.5C7.97626 10.5 5.95782 8.48109 5.95782 6C5.95782 3.51844 8.02032 1.5 10.4578 1.5ZM12.7734 22.5H1.62469C1.55672 22.5 1.50001 22.4437 1.50001 22.3734C1.49954 18.7219 4.47188 15.75 8.12344 15.75H12.8719C13.7705 15.75 14.617 15.9468 15.3956 16.2783C15.6991 16.4076 16.0097 16.3239 16.2848 16.0907C16.6434 15.732 16.5379 15.1138 16.0724 14.9127C15.0516 14.4891 14.0109 14.25 12.8766 14.25H8.12344C3.63469 14.25 -0.005394 17.8875 6.00033e-06 22.3781C0.00110288 23.2687 0.732662 24 1.62469 24H12.7763C13.1768 24 13.5014 23.6752 13.5014 23.2748V23.2252C13.4578 22.8234 13.1766 22.5 12.7734 22.5Z" fill="#324068"/>
</svg>
