<svg width="22" height="18" viewBox="0 0 22 18" fill="none" xmlns="http://www.w3.org/2000/svg">
<mask id="path-1-outside-1_168_3229" maskUnits="userSpaceOnUse" x="0" y="0" width="22" height="18" fill="black">
<rect fill="white" width="22" height="18"/>
<path d="M20.5626 8.31875L19.6834 7.43937C19.3904 7.14647 19.0064 7 18.6226 7C18.2388 7 17.8546 7.1465 17.5618 7.43937L12.0765 12.9237C11.7972 13.203 11.6067 13.5587 11.5295 13.9459L11.0088 16.5506C10.961 16.7875 11.1454 17 11.3486 17C11.3731 17 11.3981 16.9976 11.4235 16.9925L14.0286 16.4716C14.4159 16.3941 14.7716 16.2039 15.0507 15.9247L20.5359 10.4403C21.1502 9.85313 21.1502 8.90312 20.5626 8.31875ZM14.3709 15.1906C14.2309 15.3306 14.0543 15.4252 13.8599 15.464L12.1737 15.8281L12.5106 14.1428C12.5495 13.9485 12.6441 13.7716 12.7842 13.6316L16.3567 10.0597L17.9432 11.6459L14.3709 15.1906ZM19.8562 9.73438L18.6491 10.9412L17.0626 9.355L18.2697 8.14813C18.3971 8.02075 18.5459 8.00169 18.6232 8.00169C18.7005 8.00169 18.8494 8.02073 18.9767 8.14813L19.8559 9.0275C19.9844 9.15312 20.0031 9.30313 20.0031 9.37813C20.0031 9.45625 19.9844 9.60625 19.8562 9.73438ZM7.97302 9C10.1828 9 11.9737 7.20906 11.9737 5C11.9737 2.79094 10.1828 1 7.97302 1C5.79141 1 4.00049 2.79094 4.00049 5C4.00049 7.20906 5.79141 9 7.97302 9ZM7.97302 2C9.62766 2 10.9735 3.34562 10.9735 5C10.9735 6.65406 9.62766 8 7.97302 8C6.31837 8 4.97253 6.65406 4.97253 5C4.97253 3.34562 6.34775 2 7.97302 2ZM9.51702 16H2.08331C2.03799 16 2.00017 15.9625 2.00017 15.9156C1.99985 13.4812 3.98174 11.5 6.41651 11.5H9.58266C10.1818 11.5 10.7463 11.6312 11.2654 11.8522C11.4678 11.9384 11.6749 11.8826 11.8583 11.7271C12.0974 11.488 12.0271 11.0759 11.7167 10.9418C11.036 10.6594 10.3422 10.5 9.58578 10.5H6.41651C3.42352 10.5 0.996403 12.925 1 15.9187C1.00074 16.5125 1.48852 17 2.08331 17H9.5189C9.78597 17 10.0024 16.7835 10.0024 16.5166V16.4835C9.97334 16.2156 9.78581 16 9.51702 16Z"/>
</mask>
<path d="M20.5626 8.31875L19.6834 7.43937C19.3904 7.14647 19.0064 7 18.6226 7C18.2388 7 17.8546 7.1465 17.5618 7.43937L12.0765 12.9237C11.7972 13.203 11.6067 13.5587 11.5295 13.9459L11.0088 16.5506C10.961 16.7875 11.1454 17 11.3486 17C11.3731 17 11.3981 16.9976 11.4235 16.9925L14.0286 16.4716C14.4159 16.3941 14.7716 16.2039 15.0507 15.9247L20.5359 10.4403C21.1502 9.85313 21.1502 8.90312 20.5626 8.31875ZM14.3709 15.1906C14.2309 15.3306 14.0543 15.4252 13.8599 15.464L12.1737 15.8281L12.5106 14.1428C12.5495 13.9485 12.6441 13.7716 12.7842 13.6316L16.3567 10.0597L17.9432 11.6459L14.3709 15.1906ZM19.8562 9.73438L18.6491 10.9412L17.0626 9.355L18.2697 8.14813C18.3971 8.02075 18.5459 8.00169 18.6232 8.00169C18.7005 8.00169 18.8494 8.02073 18.9767 8.14813L19.8559 9.0275C19.9844 9.15312 20.0031 9.30313 20.0031 9.37813C20.0031 9.45625 19.9844 9.60625 19.8562 9.73438ZM7.97302 9C10.1828 9 11.9737 7.20906 11.9737 5C11.9737 2.79094 10.1828 1 7.97302 1C5.79141 1 4.00049 2.79094 4.00049 5C4.00049 7.20906 5.79141 9 7.97302 9ZM7.97302 2C9.62766 2 10.9735 3.34562 10.9735 5C10.9735 6.65406 9.62766 8 7.97302 8C6.31837 8 4.97253 6.65406 4.97253 5C4.97253 3.34562 6.34775 2 7.97302 2ZM9.51702 16H2.08331C2.03799 16 2.00017 15.9625 2.00017 15.9156C1.99985 13.4812 3.98174 11.5 6.41651 11.5H9.58266C10.1818 11.5 10.7463 11.6312 11.2654 11.8522C11.4678 11.9384 11.6749 11.8826 11.8583 11.7271C12.0974 11.488 12.0271 11.0759 11.7167 10.9418C11.036 10.6594 10.3422 10.5 9.58578 10.5H6.41651C3.42352 10.5 0.996403 12.925 1 15.9187C1.00074 16.5125 1.48852 17 2.08331 17H9.5189C9.78597 17 10.0024 16.7835 10.0024 16.5166V16.4835C9.97334 16.2156 9.78581 16 9.51702 16Z" fill="#111827"/>
<path d="M20.5626 8.31875L20.4211 8.46016L20.4215 8.46056L20.5626 8.31875ZM19.6834 7.43937L19.8248 7.29797L19.8248 7.29794L19.6834 7.43937ZM17.5618 7.43937L17.7032 7.58081L17.7032 7.58079L17.5618 7.43937ZM11.5295 13.9459L11.7257 13.9851L11.7257 13.985L11.5295 13.9459ZM11.0088 16.5506L11.2049 16.5902L11.2049 16.5898L11.0088 16.5506ZM11.4235 16.9925L11.4627 17.1886L11.4627 17.1886L11.4235 16.9925ZM14.0286 16.4716L14.0678 16.6677L14.0679 16.6677L14.0286 16.4716ZM15.0507 15.9247L14.9093 15.7832L14.9092 15.7833L15.0507 15.9247ZM20.5359 10.4403L20.3977 10.2957L20.3945 10.2989L20.5359 10.4403ZM14.3709 15.1906L14.2301 15.0487L14.2295 15.0492L14.3709 15.1906ZM13.8599 15.464L13.8208 15.2678L13.8177 15.2685L13.8599 15.464ZM12.1737 15.8281L11.9776 15.7889L11.9178 16.088L12.2159 16.0236L12.1737 15.8281ZM12.5106 14.1428L12.3145 14.1036L12.3145 14.1036L12.5106 14.1428ZM12.7842 13.6316L12.9256 13.7731L12.9257 13.773L12.7842 13.6316ZM16.3567 10.0597L16.4981 9.91825L16.3567 9.77687L16.2153 9.91825L16.3567 10.0597ZM17.9432 11.6459L18.0841 11.7879L18.2266 11.6465L18.0846 11.5045L17.9432 11.6459ZM19.8562 9.73438L19.9976 9.87581L19.8562 9.73438ZM18.6491 10.9412L18.5077 11.0827L18.6491 11.2241L18.7905 11.0827L18.6491 10.9412ZM17.0626 9.355L16.9212 9.21357L16.7798 9.355L16.9212 9.49643L17.0626 9.355ZM18.2697 8.14813L18.4111 8.28956L18.2697 8.14813ZM18.9767 8.14813L18.8352 8.28951L18.8353 8.28953L18.9767 8.14813ZM19.8559 9.0275L19.7145 9.16892L19.7161 9.17049L19.8559 9.0275ZM2.00017 15.9156H2.20017V15.9156L2.00017 15.9156ZM11.2654 11.8522L11.3438 11.6682L11.3438 11.6682L11.2654 11.8522ZM11.8583 11.7271L11.9876 11.8797L11.9939 11.8744L11.9998 11.8685L11.8583 11.7271ZM11.7167 10.9418L11.796 10.7582L11.7933 10.7571L11.7167 10.9418ZM1 15.9187L0.800004 15.919L0.800004 15.919L1 15.9187ZM10.0024 16.4835H10.2024V16.4726L10.2012 16.4619L10.0024 16.4835ZM20.704 8.17734L19.8248 7.29797L19.5419 7.58078L20.4211 8.46016L20.704 8.17734ZM19.8248 7.29794C19.4928 6.96603 19.0573 6.8 18.6226 6.8V7.2C18.9555 7.2 19.288 7.32691 19.542 7.58081L19.8248 7.29794ZM18.6226 6.8C18.1879 6.8 17.7522 6.96606 17.4203 7.29796L17.7032 7.58079C17.957 7.32694 18.2896 7.2 18.6226 7.2V6.8ZM17.4204 7.29794L11.9351 12.7823L12.2179 13.0652L17.7032 7.58081L17.4204 7.29794ZM11.9351 12.7823C11.6279 13.0895 11.4183 13.4808 11.3334 13.9068L11.7257 13.985C11.7951 13.6367 11.9665 13.3165 12.2179 13.0652L11.9351 12.7823ZM11.3334 13.9067L10.8127 16.5114L11.2049 16.5898L11.7257 13.9851L11.3334 13.9067ZM10.8128 16.511C10.7413 16.8651 11.0124 17.2 11.3486 17.2V16.8C11.2785 16.8 11.1807 16.7099 11.2049 16.5902L10.8128 16.511ZM11.3486 17.2C11.3864 17.2 11.4246 17.1962 11.4627 17.1886L11.3844 16.7964C11.3717 16.7989 11.3598 16.8 11.3486 16.8V17.2ZM11.4627 17.1886L14.0678 16.6677L13.9894 16.2754L11.3843 16.7964L11.4627 17.1886ZM14.0679 16.6677C14.4938 16.5825 14.885 16.3732 15.1921 16.0661L14.9092 15.7833C14.6581 16.0345 14.338 16.2057 13.9894 16.2754L14.0679 16.6677ZM15.1921 16.0661L20.6774 10.5817L20.3945 10.2989L14.9093 15.7832L15.1921 16.0661ZM20.6741 10.5849C21.37 9.91968 21.3706 8.84027 20.7036 8.17694L20.4215 8.46056C20.9297 8.96598 20.9304 9.78657 20.3977 10.2957L20.6741 10.5849ZM14.2295 15.0492C14.1174 15.1613 13.9764 15.2368 13.8208 15.2679L13.8991 15.6601C14.1323 15.6136 14.3444 15.5 14.5123 15.3321L14.2295 15.0492ZM13.8177 15.2685L12.1315 15.6326L12.2159 16.0236L13.9021 15.6595L13.8177 15.2685ZM12.3698 15.8673L12.7068 14.182L12.3145 14.1036L11.9776 15.7889L12.3698 15.8673ZM12.7067 14.182C12.7379 14.0263 12.8135 13.885 12.9256 13.7731L12.6429 13.4901C12.4747 13.6581 12.3611 13.8706 12.3145 14.1036L12.7067 14.182ZM12.9257 13.773L16.4981 10.2011L16.2153 9.91825L12.6428 13.4901L12.9257 13.773ZM16.2153 10.2011L17.8018 11.7874L18.0846 11.5045L16.4981 9.91825L16.2153 10.2011ZM17.8023 11.504L14.2301 15.0487L14.5118 15.3326L18.0841 11.7879L17.8023 11.504ZM19.7148 9.59294L18.5077 10.7998L18.7905 11.0827L19.9976 9.87581L19.7148 9.59294ZM18.7905 10.7998L17.204 9.21357L16.9212 9.49643L18.5077 11.0827L18.7905 10.7998ZM17.204 9.49643L18.4111 8.28956L18.1283 8.00669L16.9212 9.21357L17.204 9.49643ZM18.4111 8.28956C18.4872 8.21349 18.5756 8.20169 18.6232 8.20169V7.80169C18.5163 7.80169 18.307 7.82801 18.1283 8.00669L18.4111 8.28956ZM18.6232 8.20169C18.6709 8.20169 18.7593 8.2135 18.8352 8.28951L19.1181 8.00674C18.9395 7.82797 18.7301 7.80169 18.6232 7.80169V8.20169ZM18.8353 8.28953L19.7145 9.16891L19.9973 8.88609L19.1181 8.00672L18.8353 8.28953ZM19.7161 9.17049C19.7914 9.24416 19.8031 9.33225 19.8031 9.37813H20.2031C20.2031 9.274 20.1773 9.06209 19.9957 8.88451L19.7161 9.17049ZM19.8031 9.37813C19.8031 9.4273 19.7913 9.51648 19.7148 9.59294L19.9976 9.87581C20.1774 9.69602 20.2031 9.4852 20.2031 9.37813H19.8031ZM7.97302 9.2C10.2932 9.2 12.1737 7.31954 12.1737 5H11.7737C11.7737 7.09859 10.0723 8.8 7.97302 8.8V9.2ZM12.1737 5C12.1737 2.68046 10.2932 0.8 7.97302 0.8V1.2C10.0723 1.2 11.7737 2.90141 11.7737 5H12.1737ZM7.97302 0.8C5.68006 0.8 3.80049 2.68138 3.80049 5H4.20049C4.20049 2.9005 5.90277 1.2 7.97302 1.2V0.8ZM3.80049 5C3.80049 7.31862 5.68006 9.2 7.97302 9.2V8.8C5.90277 8.8 4.20049 7.0995 4.20049 5H3.80049ZM7.97302 2.2C9.51724 2.2 10.7735 3.45611 10.7735 5H11.1735C11.1735 3.23514 9.73809 1.8 7.97302 1.8V2.2ZM10.7735 5C10.7735 6.54359 9.51722 7.8 7.97302 7.8V8.2C9.7381 8.2 11.1735 6.76454 11.1735 5H10.7735ZM7.97302 7.8C6.42881 7.8 5.17253 6.54359 5.17253 5H4.77253C4.77253 6.76454 6.20793 8.2 7.97302 8.2V7.8ZM5.17253 5C5.17253 3.45738 6.45691 2.2 7.97302 2.2V1.8C6.2386 1.8 4.77253 3.23387 4.77253 5H5.17253ZM9.51702 15.8H2.08331V16.2H9.51702V15.8ZM2.08331 15.8C2.14987 15.8 2.20017 15.8535 2.20017 15.9156H1.80017C1.80017 16.0715 1.92611 16.2 2.08331 16.2V15.8ZM2.20017 15.9156C2.19987 13.5918 4.09214 11.7 6.41651 11.7V11.3C3.87134 11.3 1.79984 13.3707 1.80017 15.9157L2.20017 15.9156ZM6.41651 11.7H9.58266V11.3H6.41651V11.7ZM9.58266 11.7C10.1521 11.7 10.69 11.8246 11.1871 12.0362L11.3438 11.6682C10.8026 11.4378 10.2116 11.3 9.58266 11.3V11.7ZM11.1871 12.0362C11.4786 12.1604 11.7647 12.0686 11.9876 11.8797L11.729 11.5745C11.585 11.6966 11.457 11.7164 11.3438 11.6682L11.1871 12.0362ZM11.9998 11.8685C12.3342 11.5341 12.2419 10.9508 11.796 10.7582L11.6374 11.1254C11.8122 11.2009 11.8607 11.4419 11.7169 11.5857L11.9998 11.8685ZM11.7933 10.7571C11.0918 10.466 10.3719 10.3 9.58578 10.3V10.7C10.3124 10.7 10.9803 10.8528 11.64 11.1265L11.7933 10.7571ZM9.58578 10.3H6.41651V10.7H9.58578V10.3ZM6.41651 10.3C3.3132 10.3 0.79627 12.8145 0.800004 15.919L1.2 15.9185C1.19654 13.0355 3.53385 10.7 6.41651 10.7V10.3ZM0.800004 15.919C0.800872 16.6232 1.37821 17.2 2.08331 17.2V16.8C1.59883 16.8 1.2006 16.4018 1.2 15.9185L0.800004 15.919ZM2.08331 17.2H9.5189V16.8H2.08331V17.2ZM9.5189 17.2C9.89642 17.2 10.2024 16.894 10.2024 16.5166H9.80241C9.80241 16.673 9.67552 16.8 9.5189 16.8V17.2ZM10.2024 16.5166V16.4835H9.80241V16.5166H10.2024ZM10.2012 16.4619C10.1641 16.1196 9.91303 15.8 9.51702 15.8V16.2C9.6586 16.2 9.78259 16.3116 9.80358 16.505L10.2012 16.4619Z" fill="#111827" mask="url(#path-1-outside-1_168_3229)"/>
</svg>
