<svg width="32" height="32" viewBox="0 0 32 32" fill="none" xmlns="http://www.w3.org/2000/svg">
<circle cx="16" cy="16" r="15.5" fill="#89182A" stroke="#F8F8F8"/>
<g clip-path="url(#clip0_168_1972)">
<path d="M9 11.5C9 11.2237 9.22387 11 9.5 11H22.5C22.775 11 23 11.2237 23 11.5C23 11.7763 22.775 12 22.5 12H9.5C9.22387 12 9 11.7763 9 11.5ZM11 16.5C11 16.225 11.2238 16 11.5 16H20.5C20.775 16 21 16.225 21 16.5C21 16.775 20.775 17 20.5 17H11.5C11.2238 17 11 16.775 11 16.5ZM17.5 22H14.5C14.225 22 14 21.775 14 21.5C14 21.225 14.225 21 14.5 21H17.5C17.775 21 18 21.225 18 21.5C18 21.775 17.775 22 17.5 22Z" fill="white"/>
</g>
<defs>
<clipPath id="clip0_168_1972">
<rect width="14" height="11" fill="white" transform="translate(9 11)"/>
</clipPath>
</defs>
</svg>
