<svg width="24" height="24" viewBox="0 0 24 24" fill="none" xmlns="http://www.w3.org/2000/svg">
<g clip-path="url(#clip0_14_1839)">
<path d="M7.87479 11.9578C7.87479 9.72188 9.72166 7.83281 11.9998 7.83281C14.2779 7.83281 16.1248 9.72188 16.1248 11.9578C16.1248 14.2781 14.2779 16.125 11.9998 16.125C9.72166 16.125 7.87479 14.2781 7.87479 11.9578ZM11.9998 9.33281C10.5513 9.33281 9.37479 10.5516 9.37479 11.9578C9.37479 13.4484 10.5513 14.5828 11.9998 14.5828C13.4482 14.5828 14.6248 13.4484 14.6248 11.9578C14.6248 10.5516 13.4482 9.33281 11.9998 9.33281ZM3.07807 10.8094L1.1876 9.08438C0.666349 8.61094 0.546349 7.8375 0.898849 7.22812L2.31635 4.77188C2.66885 4.16156 3.39869 3.87891 4.07041 4.09312L6.50604 4.87031C7.13416 4.38562 7.82791 3.9825 8.56854 3.67641L9.11697 1.17937C9.26697 0.490781 9.87635 0 10.5842 0H13.4154C14.1232 0 14.7326 0.490781 14.8826 1.17937L15.431 3.67641C16.1295 3.9825 16.8654 4.38562 17.4935 4.87031L19.931 4.09312C20.6014 3.87891 21.3326 4.16156 21.6842 4.77188L23.0998 7.22812C23.4513 7.8375 23.3342 8.61094 22.8139 9.08438L20.9201 10.8094C20.9717 11.1984 20.9998 11.5969 20.9998 11.9578C20.9998 12.4031 20.9717 12.8016 20.9201 13.1906L22.8139 14.9156C23.3342 15.3891 23.4513 16.1625 23.0998 16.7719L21.6842 19.2281C21.3326 19.8375 20.6014 20.1188 19.931 19.9078L17.4935 19.1297C16.8654 19.6125 16.1295 20.0156 15.431 20.325L14.8826 22.8187C14.7326 23.5078 14.1232 24 13.4154 24H10.5842C9.87635 24 9.26697 23.5078 9.11697 22.8187L8.56854 20.325C7.82791 20.0156 7.13416 19.6125 6.50604 19.1297L4.07041 19.9078C3.39869 20.1188 2.66885 19.8375 2.31635 19.2281L0.898849 16.7719C0.546349 16.1625 0.666349 15.3891 1.1876 14.9156L3.07807 13.1906C3.02651 12.8016 2.99979 12.4031 2.99979 11.9578C2.99979 11.5969 3.02651 11.1984 3.07807 10.8094ZM7.42479 6.05625L6.80135 6.53906L3.61526 5.52188L2.19776 7.97812L4.6676 10.2281L4.56494 11.0063C4.52182 11.3297 4.49979 11.6625 4.49979 11.9578C4.49979 12.3375 4.52182 12.6703 4.56494 12.9938L4.6676 13.7719L2.19776 16.0219L3.61526 18.4781L6.80135 17.4609L7.42479 17.9437C7.9451 18.3469 8.52635 18.6844 9.14041 18.8953L9.86697 19.2375L10.5842 22.5H13.4154L14.1326 19.2375L14.817 18.8953C15.4732 18.6844 16.0545 18.3469 16.5748 17.9437L17.1982 17.4609L20.3857 18.4781L21.8013 16.0219L19.331 13.7719L19.4342 12.9938C19.4764 12.6703 19.4998 12.3375 19.4998 12C19.4998 11.6625 19.4764 11.3297 19.4342 11.0063L19.331 10.2281L21.8013 7.97812L20.3857 5.52188L17.1982 6.53906L16.5748 6.05625C16.0545 5.65312 15.4732 5.31563 14.817 5.0625L14.1326 4.7625L13.4154 1.5H10.5842L9.86697 4.7625L9.14041 5.0625C8.52635 5.31563 7.9451 5.65312 7.42479 6.05625Z" fill="#324068"/>
</g>
<defs>
<clipPath id="clip0_14_1839">
<rect width="24" height="24" fill="white"/>
</clipPath>
</defs>
</svg>
