<svg width="20" height="20" viewBox="0 0 20 20" fill="none" xmlns="http://www.w3.org/2000/svg">
<path d="M19.8052 8.04136H18.9997V7.99986H9.99983V11.9998H15.6512C14.8267 14.3283 12.6113 15.9997 9.99983 15.9997C6.68638 15.9997 3.99993 13.3133 3.99993 9.99983C3.99993 6.68638 6.68638 3.99993 9.99983 3.99993C11.5293 3.99993 12.9208 4.57692 13.9803 5.5194L16.8087 2.69095C15.0227 1.02648 12.6338 0 9.99983 0C4.47742 0 0 4.47742 0 9.99983C0 15.5222 4.47742 19.9997 9.99983 19.9997C15.5222 19.9997 19.9997 15.5222 19.9997 9.99983C19.9997 9.32934 19.9307 8.67485 19.8052 8.04136Z" fill="#FFC107"/>
<path d="M1.15234 5.34541L4.43779 7.75487C5.32677 5.5539 7.47973 3.99993 9.99919 3.99993C11.5287 3.99993 12.9201 4.57692 13.9796 5.5194L16.8081 2.69095C15.0221 1.02648 12.6331 0 9.99919 0C6.15826 0 2.82731 2.16846 1.15234 5.34541Z" fill="#FF3D00"/>
<path d="M10 20C12.583 20 14.9299 19.0115 16.7044 17.404L13.6094 14.7851C12.5717 15.5742 11.3037 16.0011 10 16C7.39905 16 5.19059 14.3416 4.3586 12.0271L1.09766 14.5396C2.75263 17.778 6.11357 20 10 20Z" fill="#4CAF50"/>
<path d="M19.8052 8.04126H18.9997V7.99976H9.99988V11.9997H15.6513C15.2569 13.1079 14.5465 14.0762 13.6078 14.7851L13.6093 14.7841L16.7043 17.4031C16.4853 17.6021 19.9997 14.9996 19.9997 9.99972C19.9997 9.32923 19.9307 8.67474 19.8052 8.04126Z" fill="#1976D2"/>
</svg>
