<svg width="19" height="19" viewBox="0 0 19 19" fill="none" xmlns="http://www.w3.org/2000/svg">
<path d="M18.0819 6.51503C17.5858 3.30077 15.1301 0.752732 12.0324 0.237933C11.0943 0.0821949 10.1354 0 9.1556 0C8.17584 0 7.21692 0.0821949 6.27884 0.237933C3.18111 0.752732 0.725444 3.30077 0.229307 6.51503C0.0792152 7.48406 0 8.48338 0 9.5C0 10.5166 0.0792152 11.5116 0.229307 12.485C0.725444 15.6992 3.18111 18.2473 6.27884 18.7621C7.21692 18.9178 8.17584 19 9.1556 19C10.1354 19 11.0943 18.9178 12.0324 18.7621C15.1301 18.2473 17.5858 15.6992 18.0819 12.485C18.232 11.5159 18.3112 10.5166 18.3112 9.5C18.3112 8.48338 18.232 7.48839 18.0819 6.51503Z" fill="#9D9D9D"/>
<path d="M11.1282 11.5805C11.1282 12.1429 10.6905 12.5971 10.1485 12.5971H5.88753C4.80353 12.5971 3.92383 11.6844 3.92383 10.5596V7.50539C3.92383 6.943 4.3616 6.48877 4.90359 6.48877H9.16454C10.2485 6.48877 11.1282 7.40157 11.1282 8.52634V11.5805ZM13.6048 6.76131L12.1664 7.88176C11.9204 8.0721 11.7745 8.37493 11.7745 8.69505V10.3909C11.7745 10.711 11.9204 11.0138 12.1664 11.2042L13.6048 12.3246C13.93 12.5755 14.3886 12.3376 14.3886 11.918V7.16796C14.3886 6.74833 13.9258 6.5104 13.6048 6.76131Z" fill="white"/>
</svg>
