<svg width="25" height="20" viewBox="0 0 25 20" fill="currentColor" xmlns="http://www.w3.org/2000/svg">
<path d="M12.4961 12.5C14.7387 12.5 16.5234 10.6812 16.5234 8.4375C16.5234 6.19375 14.7055 4.375 12.4961 4.375C10.2535 4.375 8.46875 6.19375 8.46875 8.4375C8.43359 10.6797 10.2539 12.5 12.4961 12.5ZM12.4961 5.625C14.0461 5.625 15.307 6.88672 15.307 8.4375C15.307 9.98828 14.043 11.25 12.4961 11.25C10.9492 11.25 9.68359 9.98828 9.68359 8.4375C9.68359 6.88672 10.9453 5.625 12.4961 5.625ZM14.4492 13.75H10.5508C7.48438 13.75 5 16.082 5 18.957C5 19.5352 5.49609 20 6.10938 20H18.8906C19.5039 20 20 19.5352 20 18.957C20 16.082 17.5156 13.75 14.4492 13.75ZM6.25781 18.75C6.37582 16.6637 8.25742 15 10.5195 15H14.4492C16.7453 15 18.625 16.6637 18.7109 18.75H6.25781ZM20 6.25C21.7258 6.25 23.125 4.85078 23.125 3.125C23.125 1.39922 21.7266 0 20 0C18.2742 0 16.875 1.39922 16.875 3.125C16.875 4.85078 18.2734 6.25 20 6.25ZM20 1.25C21.034 1.25 21.875 2.09102 21.875 3.125C21.875 4.15898 21.0352 5 20 5C18.9648 5 18.125 4.15898 18.125 3.125C18.125 2.09102 18.9648 1.25 20 1.25ZM5 6.25C6.72578 6.25 8.125 4.85078 8.125 3.125C8.125 1.39922 6.72656 0 5 0C3.27422 0 1.875 1.39922 1.875 3.125C1.875 4.85078 3.27422 6.25 5 6.25ZM5 1.25C6.03398 1.25 6.875 2.09102 6.875 3.125C6.875 4.15898 6.03516 5 5 5C3.96484 5 3.125 4.16016 3.125 3.125C3.125 2.08984 3.96484 1.25 5 1.25ZM21.918 7.5H19.375C18.9391 7.5 18.5125 7.59766 18.1066 7.79055C17.7948 7.93887 17.6617 8.31164 17.81 8.62297C17.9583 8.9343 18.3327 9.06789 18.6424 8.91961C18.8789 8.80859 19.125 8.75 19.375 8.75H21.9172C22.8945 8.75 23.75 9.63672 23.75 10.7305V11.25C23.75 11.5955 24.0295 11.875 24.375 11.875C24.7205 11.875 25 11.5938 25 11.25V10.7305C25 8.94922 23.6172 7.5 21.918 7.5ZM6.35938 8.91797C6.66945 9.06629 7.04414 8.93262 7.1918 8.62133C7.34012 8.31004 7.20706 7.93695 6.89516 7.78891C6.48828 7.59766 6.0625 7.5 5.625 7.5H3.08281C1.3832 7.5 0 8.94922 0 10.7305V11.25C0 11.5955 0.279531 11.875 0.625 11.875C0.970469 11.875 1.25 11.5938 1.25 11.25V10.7305C1.25 9.63672 2.07227 8.75 3.08281 8.75H5.625C5.875 8.75 6.12109 8.80859 6.35938 8.91797Z" fill="currentColor"/>
</svg>
