<svg width="26" height="23" viewBox="0 0 26 23" fill="none" xmlns="http://www.w3.org/2000/svg">
<path d="M0.041805 8.31808C0.800976 15.5454 11.9821 22.5508 12.4574 22.8458C12.6229 22.9487 12.8113 23 12.9999 23C13.1886 23 13.377 22.9487 13.5425 22.8458C14.0179 22.5508 25.1988 15.5454 25.9581 8.31808C26.2017 6.00023 25.3825 3.92268 23.5214 2.14382C21.9751 0.664477 20.2521 -0.0690624 18.3782 0.00511513C15.9974 0.0820027 14.0248 1.43493 13 2.30035C11.9752 1.43499 10.0026 0.0820378 7.62209 0.00511513C5.74786 -0.0592266 4.02509 0.665412 2.47887 2.14382C0.617444 3.92227 -0.201754 6.00006 0.041934 8.31808H0.041805Z" fill="#D10818"/>
</svg>
