<svg width="23" height="20" viewBox="0 0 23 20" fill="currentColor" xmlns="http://www.w3.org/2000/svg">
<path d="M10.8359 0.156328C11.0742 -0.0521094 11.4258 -0.0521094 11.6641 0.156328L22.2891 9.53125C22.5469 9.75781 22.5703 10.1211 22.3086 10.4141C22.1172 10.6719 21.7188 10.6953 21.4609 10.4336L20 9.14453V16.875C20 18.6016 18.6016 20 16.875 20H5.62501C3.89923 20 2.50001 18.6016 2.50001 16.875V9.14453L1.03868 10.4336C0.779696 10.6953 0.384735 10.6719 0.156376 10.4141C-0.0720229 10.1211 -0.0473354 9.75781 0.211493 9.53125L10.8359 0.156328ZM3.75001 8.07422V16.875C3.75001 17.9102 4.58985 18.75 5.62501 18.75H16.875C17.9102 18.75 18.75 17.9102 18.75 16.875V8.07422L11.25 1.45859L3.75001 8.07422Z" fill="currentColor"/>
</svg>
