<svg width="6" height="6" viewBox="0 0 6 6" fill="none" xmlns="http://www.w3.org/2000/svg">
<path d="M2.834 2.25012e-05C2.08235 2.25012e-05 1.36155 0.298617 0.83006 0.830083C0.298594 1.36155 0 2.08244 0 2.83402C0 3.58559 0.298594 4.30646 0.83006 4.83795C1.36153 5.36942 2.08242 5.66801 2.834 5.66801C3.58557 5.66801 4.30644 5.36942 4.83793 4.83795C5.3694 4.30649 5.66799 3.58559 5.66799 2.83402C5.66716 2.08265 5.36831 1.36225 4.83701 0.830983C4.30571 0.299719 3.58532 0.000843454 2.83397 0L2.834 2.25012e-05ZM2.834 5.29017C2.1826 5.29017 1.55791 5.03142 1.09727 4.57081C0.636662 4.11016 0.377913 3.48543 0.377913 2.83409C0.377913 2.18274 0.636662 1.558 1.09727 1.09736C1.55792 0.636752 2.18265 0.378003 2.834 0.378003C3.48534 0.378003 4.11009 0.636752 4.57072 1.09736C5.03133 1.55801 5.29008 2.18274 5.29008 2.83409C5.28938 3.48525 5.03036 4.10961 4.56989 4.57003C4.10947 5.0305 3.48513 5.28952 2.83395 5.29021L2.834 5.29017Z" fill="black"/>
<path d="M2.83393 2.28711C2.76711 2.28711 2.70306 2.31364 2.65579 2.36091C2.60857 2.40814 2.58203 2.47223 2.58203 2.53905V4.12013C2.58203 4.21015 2.63005 4.2933 2.70798 4.33828C2.78591 4.38331 2.88194 4.38331 2.95986 4.33828C3.0378 4.2933 3.08581 4.21014 3.08581 4.12013V2.53905C3.08581 2.47223 3.05928 2.40813 3.01205 2.36091C2.96478 2.31364 2.90073 2.28711 2.83391 2.28711H2.83393Z" fill="black"/>
<path d="M3.08581 1.5473C3.08581 1.68642 2.97305 1.79919 2.83392 1.79919C2.6948 1.79919 2.58203 1.68642 2.58203 1.5473C2.58203 1.40817 2.6948 1.29541 2.83392 1.29541C2.97305 1.29541 3.08581 1.40817 3.08581 1.5473Z" fill="black"/>
</svg>
