<svg width="13" height="20" viewBox="0 0 13 20" fill="none" xmlns="http://www.w3.org/2000/svg">
<path fill-rule="evenodd" clip-rule="evenodd" d="M1.8394 8.88922H1.73303C0.77438 8.88922 0 9.68568 0 10.6682V18.221C0 19.2054 0.775981 20 1.73303 20H11.267C12.2256 20 13 19.2035 13 18.221V10.6682C13 9.68372 12.2242 8.88922 11.267 8.88922H3.57296V4.78139C3.57296 3.12237 4.88338 1.77792 6.50021 1.77792C8.11652 1.77792 9.42746 3.12305 9.42746 4.78139V6.07406C9.42746 6.56499 9.81553 6.96302 10.2942 6.96302C10.7727 6.96302 11.1608 6.56499 11.1608 6.07406V4.78139C11.1608 2.14134 9.07396 0 6.50035 0C3.92605 0 1.83993 2.14048 1.83993 4.78139L1.8394 8.88922ZM7.08585 14.3181C7.38509 14.1204 7.58327 13.7756 7.58327 13.3834C7.58327 12.7698 7.09821 12.2724 6.49989 12.2724C5.90166 12.2724 5.41665 12.7699 5.41665 13.3834C5.41665 13.7757 5.61482 14.1206 5.91406 14.3183L5.43555 16.1786C5.36115 16.4206 5.51213 16.6169 5.77927 16.6169H7.22078C7.48602 16.6169 7.63863 16.4198 7.5645 16.1786L7.08585 14.3181Z" fill="black"/>
</svg>
