<svg width="18" height="18" viewBox="0 0 18 18" fill="none" xmlns="http://www.w3.org/2000/svg">
<g clip-path="url(#clip0_712_1086)">
<path d="M15.3366 15.3369H12.6696V11.1601C12.6696 10.1641 12.6518 8.88196 11.2825 8.88196C9.89336 8.88196 9.6808 9.96716 9.6808 11.0876V15.3366H7.01385V6.74748H9.57414V7.92128H9.61C9.86622 7.48316 10.2365 7.12274 10.6813 6.87841C11.1262 6.63408 11.629 6.51498 12.1362 6.5338C14.8394 6.5338 15.3377 8.31186 15.3377 10.625L15.3366 15.3369ZM4.00447 5.57347C3.14969 5.57361 2.45662 4.88075 2.45647 4.02596C2.45633 3.17118 3.14912 2.47811 4.00391 2.47796C4.8587 2.47775 5.55177 3.17061 5.55191 4.0254C5.55199 4.43589 5.389 4.82959 5.0988 5.11991C4.8086 5.41023 4.41496 5.57338 4.00447 5.57347ZM5.33802 15.3369H2.66819V6.74748H5.33795V15.3369L5.33802 15.3369ZM16.6662 0.00106591H1.32803C0.603107 -0.00709034 0.00861523 0.573621 -0.000244141 1.29854V16.7007C0.00833398 17.426 0.602756 18.0073 1.32796 17.9997H16.6662C17.393 18.0087 17.9897 17.4274 17.9998 16.7007V1.29735C17.9894 0.571019 17.3926 -0.00962159 16.6662 -0.000129398" fill="#0A66C2"/>
</g>
<defs>
<clipPath id="clip0_712_1086">
<rect width="18" height="18" fill="white"/>
</clipPath>
</defs>
</svg>
