<svg width="33" height="32" viewBox="0 0 33 32" fill="none" xmlns="http://www.w3.org/2000/svg">
<path d="M24.4999 9.5465C24.4199 9.53317 24.3266 9.53317 24.2466 9.5465C22.4066 9.47984 20.9399 7.97317 20.9399 6.1065C20.9399 4.19984 22.4733 2.6665 24.3799 2.6665C26.2866 2.6665 27.8199 4.21317 27.8199 6.1065C27.8066 7.97317 26.3399 9.47984 24.4999 9.5465Z" stroke="white" stroke-width="1.5" stroke-linecap="round" stroke-linejoin="round"/>
<path d="M23.1264 19.2533C24.9531 19.56 26.9664 19.24 28.3798 18.2933C30.2598 17.04 30.2598 14.9867 28.3798 13.7333C26.9531 12.7867 24.9131 12.4667 23.0864 12.7867" stroke="white" stroke-width="1.5" stroke-linecap="round" stroke-linejoin="round"/>
<path d="M8.46014 9.5465C8.54014 9.53317 8.63347 9.53317 8.71347 9.5465C10.5535 9.47984 12.0201 7.97317 12.0201 6.1065C12.0201 4.19984 10.4868 2.6665 8.58014 2.6665C6.67347 2.6665 5.14014 4.21317 5.14014 6.1065C5.15347 7.97317 6.62014 9.47984 8.46014 9.5465Z" stroke="white" stroke-width="1.5" stroke-linecap="round" stroke-linejoin="round"/>
<path d="M9.83325 19.2533C8.00659 19.56 5.99325 19.24 4.57992 18.2933C2.69992 17.04 2.69992 14.9867 4.57992 13.7333C6.00659 12.7867 8.04659 12.4667 9.87326 12.7867" stroke="white" stroke-width="1.5" stroke-linecap="round" stroke-linejoin="round"/>
<path d="M16.5 19.5065C16.42 19.4932 16.3267 19.4932 16.2467 19.5065C14.4067 19.4398 12.9399 17.9332 12.9399 16.0665C12.9399 14.1598 14.4733 12.6265 16.38 12.6265C18.2867 12.6265 19.82 14.1732 19.82 16.0665C19.8067 17.9332 18.34 19.4532 16.5 19.5065Z" stroke="white" stroke-width="1.5" stroke-linecap="round" stroke-linejoin="round"/>
<path d="M12.62 23.7065C10.74 24.9598 10.74 27.0132 12.62 28.2665C14.7533 29.6932 18.2467 29.6932 20.38 28.2665C22.26 27.0132 22.26 24.9598 20.38 23.7065C18.26 22.2932 14.7533 22.2932 12.62 23.7065Z" stroke="white" stroke-width="1.5" stroke-linecap="round" stroke-linejoin="round"/>
</svg>
