<svg width="32" height="32" viewBox="0 0 32 32" fill="none" xmlns="http://www.w3.org/2000/svg">
<path d="M5.86169 20.9573L5.22487 20.3103L2.90918 22.7809L10.551 30.5455L12.8666 28.0749L12.2298 27.4278M5.86169 20.9573L7.07742 19.7221L8.58262 21.2515M5.86169 20.9573L12.2298 27.4278M12.2298 27.4278L13.4456 26.1926L11.9404 24.6632M8.58262 21.2515C9.35452 19.9378 11.4078 17.3221 13.4456 17.3692C15.4834 17.4162 16.6875 18.0162 17.0349 18.3103H19.6979C20.1997 18.3495 21.2031 18.6162 21.2031 19.3691C21.2031 19.4987 21.19 19.6161 21.1665 19.7221M8.58262 21.2515L11.9404 24.6632M14.7192 20.6044H20.219C20.4686 20.6044 21.0195 20.3857 21.1665 19.7221M21.1665 19.7221L26.5871 16.5456C27.0503 16.1339 28.1618 15.5574 28.9028 16.5456C29.4123 17.2045 28.7677 17.9966 28.3818 18.3103L22.0715 23.2515C21.6277 23.722 20.2305 24.6632 18.1927 24.6632H11.9404" stroke="white"/>
<path d="M14.2547 6.54528H26.4729M14.2547 10.9089H26.4729M20.0002 2.18164C18.775 4.14499 18.1254 6.41282 18.1254 8.7271C18.1254 11.0414 18.775 13.3092 20.0002 15.2726M20.7275 2.18164C21.9527 4.14499 22.6022 6.41282 22.6022 8.7271C22.6022 11.0414 21.9527 13.3092 20.7275 15.2726M13.8184 8.7271C13.8184 9.58666 13.9877 10.4378 14.3166 11.2319C14.6455 12.0261 15.1277 12.7476 15.7355 13.3554C16.3433 13.9632 17.0648 14.4454 17.859 14.7743C18.6531 15.1032 19.5043 15.2726 20.3638 15.2726C21.2234 15.2726 22.0745 15.1032 22.8687 14.7743C23.6628 14.4454 24.3843 13.9632 24.9921 13.3554C25.6 12.7476 26.0821 12.0261 26.411 11.2319C26.74 10.4378 26.9093 9.58666 26.9093 8.7271C26.9093 7.86753 26.74 7.01639 26.411 6.22226C26.0821 5.42813 25.6 4.70656 24.9921 4.09876C24.3843 3.49096 23.6628 3.00882 22.8687 2.67988C22.0745 2.35094 21.2234 2.18164 20.3638 2.18164C19.5043 2.18164 18.6531 2.35094 17.859 2.67988C17.0648 3.00882 16.3433 3.49096 15.7355 4.09876C15.1277 4.70656 14.6455 5.42813 14.3166 6.22226C13.9877 7.01639 13.8184 7.86753 13.8184 8.7271Z" stroke="white" stroke-linecap="round" stroke-linejoin="round"/>
</svg>
