<svg width="24" height="21" viewBox="0 0 24 21" fill="none" xmlns="http://www.w3.org/2000/svg">
<path d="M12 1.5C17.7891 1.5 22.4578 5.20312 22.4578 9.75C22.4578 14.2969 17.7891 18 12 18C10.6758 18 9.36376 17.8008 8.09814 17.4023C7.65207 17.2585 7.16439 17.334 6.78236 17.6057C5.74642 18.3674 4.03829 19.2599 1.96829 19.4647C2.48861 18.756 3.36282 17.5663 3.87798 16.2013L3.88401 16.1854C4.08478 15.6572 3.96792 15.1026 3.58265 14.647C2.22704 13.1766 1.50282 11.5125 1.50282 9.75C1.50282 5.20312 6.21564 1.5 12 1.5ZM12 0C5.37657 0 0.00128646 4.36406 0.00128646 9.75C0.00128646 11.9827 0.935036 14.0273 2.48144 15.6656C1.78441 17.5172 0.331286 19.0819 0.307849 19.0992C-0.00265103 19.4273 -0.0846823 19.9078 0.0910521 20.318C0.272683 20.7281 0.674074 21 1.12501 21C4.00736 21 6.23907 19.793 7.64532 18.832C9.0047 19.2563 10.4672 19.5 12 19.5C18.6281 19.5 23.9578 15.1345 23.9578 9.75C23.9578 4.36547 18.6281 0 12 0Z" fill="#111827"/>
<circle cx="7" cy="10" r="1" fill="#111827"/>
<circle cx="12" cy="10" r="1" fill="#111827"/>
<circle cx="17" cy="10" r="1" fill="#111827"/>
</svg>
