<svg width="19" height="19" viewBox="0 0 19 19" fill="none" xmlns="http://www.w3.org/2000/svg">
<path d="M9.499 5.86607e-05C4.28853 0.000586772 0.000452393 3.78548 1.67702e-08 8.51591C-0.000176682 11.1605 1.39599 13.6199 3.69447 15.2215V18.1542C3.69447 18.4922 3.92207 18.8103 4.2048 18.9305C4.48753 19.0508 4.82098 19.0135 5.082 18.8299L7.84661 16.884C8.39335 16.9709 8.94466 17.0338 9.50009 17.0339C14.7106 17.0339 19.0005 13.2476 19 8.51585C18.9996 3.78497 14.7095 -0.000450605 9.49919 4.0232e-08L9.499 5.86607e-05ZM4.74995 6.83365C5.61811 6.83365 6.33327 7.54607 6.33327 8.4109C6.33327 9.27574 5.61811 9.98816 4.74995 9.98816C3.8818 9.98816 3.16664 9.27574 3.16664 8.4109C3.16664 7.54607 3.8818 6.83365 4.74995 6.83365ZM9.49991 6.83365C10.3681 6.83365 11.0832 7.54607 11.0832 8.4109C11.0832 9.27574 10.3681 9.98816 9.49991 9.98816C8.63175 9.98816 7.91659 9.27574 7.91659 8.4109C7.91659 7.54607 8.63175 6.83365 9.49991 6.83365ZM14.2499 6.83365C15.118 6.83365 15.8332 7.54607 15.8332 8.4109C15.8332 9.27574 15.118 9.98816 14.2499 9.98816C13.3817 9.98816 12.6665 9.27574 12.6665 8.4109C12.6665 7.54607 13.3817 6.83365 14.2499 6.83365Z" fill="#9C9C9C"/>
</svg>
