<svg width="16" height="16" viewBox="0 0 15 15" fill="none" xmlns="http://www.w3.org/2000/svg">
<g clip-path="url(#clip0_562_1087)">
<path d="M14.9422 7.79112C13.4444 5.02224 10.8177 3.34668 7.91107 3.34668C5.0044 3.34668 2.37329 5.02224 0.888849 7.79112L0.764404 8.00001L0.87996 8.21335C2.37774 10.9822 5.0044 12.6578 7.91107 12.6578C10.8177 12.6578 13.4488 11.0045 14.9422 8.21335L15.0577 8.00001L14.9422 7.79112ZM7.91107 11.7467C5.40885 11.7467 3.11107 10.3511 1.77774 8.00001C3.11107 5.6489 5.40885 4.25335 7.91107 4.25335C10.4133 4.25335 12.6844 5.65335 14.04 8.00001C12.6844 10.3511 10.4088 11.7467 7.91107 11.7467Z" fill="black"/>
<path d="M8.03994 4.96444C7.43733 4.96883 6.84954 5.15172 6.3508 5.48998C5.85206 5.82825 5.46476 6.30673 5.2378 6.86499C5.01084 7.42325 4.95441 8.03624 5.07563 8.62656C5.19685 9.21687 5.4903 9.75801 5.91889 10.1816C6.34749 10.6053 6.89202 10.8924 7.4837 11.0067C8.07539 11.1211 8.68768 11.0575 9.24326 10.8241C9.79884 10.5906 10.2728 10.1978 10.6052 9.69514C10.9377 9.1925 11.1137 8.60262 11.1111 7.99999C11.1093 7.59885 11.0284 7.202 10.873 6.83218C10.7176 6.46236 10.4908 6.12683 10.2055 5.84484C9.9202 5.56284 9.58206 5.33992 9.21045 5.18884C8.83884 5.03777 8.44108 4.96151 8.03994 4.96444ZM8.03994 10.1733C7.61428 10.1689 7.1994 10.0389 6.84742 9.79946C6.49543 9.56006 6.22204 9.22198 6.06156 8.8277C5.90109 8.43342 5.8607 8.00051 5.94546 7.58335C6.03022 7.16618 6.23636 6.78337 6.53798 6.48298C6.8396 6.18258 7.22325 5.97801 7.64076 5.89495C8.05826 5.8119 8.491 5.85406 8.88463 6.01614C9.27825 6.17822 9.61521 6.45299 9.85318 6.80595C10.0911 7.15891 10.2195 7.57431 10.2222 7.99999C10.2234 8.28648 10.1677 8.57035 10.0583 8.83515C9.94894 9.09995 9.7881 9.3404 9.58511 9.54257C9.38211 9.74473 9.14101 9.90459 8.87577 10.0129C8.61052 10.1211 8.32643 10.1757 8.03994 10.1733Z" fill="black"/>
</g>
<defs>
<clipPath id="clip0_562_1087">
<rect width="16" height="16" fill="white"/>
</clipPath>
</defs>
</svg>
