<svg width="21" height="20" viewBox="0 0 21 20" fill="none" xmlns="http://www.w3.org/2000/svg">
<path d="M20.25 10C20.25 10.4125 19.9125 10.75 19.5 10.75H11.25V19C11.25 19.4146 10.9146 19.7505 10.5 19.7505C10.0854 19.7505 9.75 19.4125 9.75 19V10.75H1.5C1.08544 10.75 0.75 10.4149 0.75 10.0005C0.75 9.58752 1.08562 9.25002 1.5 9.25002H9.75V1.00002C9.75 0.585457 10.0854 0.250488 10.5 0.250488C10.9146 0.250488 11.25 0.585645 11.25 1.00002V9.25002H19.5C19.9125 9.25002 20.25 9.58752 20.25 10Z" fill="#111827"/>
</svg>
