<svg width="18" height="20" viewBox="0 0 18 20" fill="none" xmlns="http://www.w3.org/2000/svg">
<path d="M8.75 10C11.5117 10 13.75 7.76133 13.75 5C13.75 2.23867 11.5117 0 8.75 0C5.98828 0 3.75 2.23867 3.75 5C3.75 7.76133 5.98828 10 8.75 10ZM8.75 1.25C10.818 1.25 12.5 2.93203 12.5 5C12.5 7.06758 10.818 8.75 8.75 8.75C6.68203 8.75 5 7.06641 5 5C5 2.93203 6.68359 1.25 8.75 1.25ZM10.7305 11.875H6.76953C3.03164 11.875 0 14.9063 0 18.6445C0 19.3922 0.60625 19.9988 1.35391 19.9988H16.1469C16.8945 20 17.5 19.3945 17.5 18.6445C17.5 14.9063 14.4688 11.875 10.7305 11.875ZM16.1445 18.75H1.35391C1.29688 18.75 1.25 18.7031 1.25 18.6445C1.25 15.6016 3.72656 13.125 6.76953 13.125H10.7266C13.7734 13.125 16.25 15.6016 16.25 18.6445C16.25 18.7031 16.2031 18.75 16.1445 18.75Z" fill="#BDC1CB"/>
</svg>
