<svg width="32" height="32" viewBox="0 0 32 32" fill="none" xmlns="http://www.w3.org/2000/svg">
<path d="M0.926037 21.3524C3.87425 29.6768 13.0261 34.0292 21.3514 31.074C29.6766 28.1187 34.0294 18.975 31.0739 10.6506C28.7475 4.09638 22.5804 0 16.0036 0C14.2259 0 12.4263 0.299914 10.6559 0.921686C2.32333 3.87693 -2.02949 13.0206 0.926037 21.3524Z" fill="url(#paint0_linear_168_3517)"/>
<path d="M26.3314 15.4911C25.3001 15.2075 24.0274 14.8584 22.9961 14.1456C20.3191 12.2766 19.595 6.86565 19.5877 6.80747L19.1269 3.2002L18.7392 6.82201C18.7319 6.85838 18.3223 10.582 16.9911 12.0584C15.8062 13.3675 14.3799 13.8766 13.3339 14.2547C12.3392 14.6111 11.5639 14.8075 9.86697 15.0402C5.03954 15.7093 0 16.3202 0 16.3202C0 16.3202 7.40206 16.9457 8.71131 17.0111C11.3006 17.1347 12.6171 17.2875 13.6558 17.7238C14.5627 18.102 16.2523 18.982 17.3202 20.6184C18.4027 22.2693 18.7538 25.222 18.7538 25.2511L19.1634 28.8002L19.6315 25.0693C19.7339 24.1966 19.9826 22.1457 20.597 21.0257C21.4528 19.462 22.8791 18.3129 24.6199 17.7893C25.7829 17.4329 27.2457 17.1056 28.9573 16.8075L32 16.2693L28.9207 15.9711C28.0503 15.8838 27.1799 15.7238 26.3314 15.4911ZM23.4057 16.7929C21.7966 17.2802 20.4654 18.3493 19.6608 19.8184C19.3975 20.2984 19.2146 20.9384 19.0757 21.5638C18.8782 20.8366 18.5856 20.0438 18.1833 19.4256C17.1959 17.9129 15.6599 17.1129 14.8334 16.7711C13.8606 16.3638 12.7195 16.3129 10.5033 16.2038H10.496H10.4887C10.2034 16.1893 9.6256 16.1675 8.92343 16.1384C9.74994 16.0438 10.635 15.9347 11.5346 15.8038C12.939 15.6075 13.6485 15.5056 14.5408 15.1856C15.477 14.8511 16.7497 14.3929 17.8469 13.1784C18.4832 12.4729 18.8855 11.2947 19.1342 10.2911C19.5511 11.8402 20.363 13.9638 21.8697 15.0184C22.8206 15.6802 23.9397 15.9857 24.8466 16.2329C24.971 16.2693 25.088 16.2984 25.2123 16.3275C24.5467 16.4802 23.9397 16.6329 23.4057 16.7929Z" fill="url(#paint1_linear_168_3517)"/>
<defs>
<linearGradient id="paint0_linear_168_3517" x1="15.9969" y1="-1.2749" x2="15.9969" y2="39.5791" gradientUnits="userSpaceOnUse">
<stop stop-color="#871729"/>
<stop offset="0.2873" stop-color="#971E31"/>
<stop offset="0.4223" stop-color="#A22335"/>
<stop offset="0.527" stop-color="#AE2739"/>
<stop offset="0.7346" stop-color="#FACDDA"/>
<stop offset="0.7859" stop-color="#E19EA3"/>
<stop offset="0.8576" stop-color="#CB6F6E"/>
<stop offset="0.9183" stop-color="#BC4D50"/>
<stop offset="0.9651" stop-color="#B4353F"/>
<stop offset="0.9922" stop-color="#B12B3A"/>
<stop offset="1" stop-color="#B12B3A"/>
</linearGradient>
<linearGradient id="paint1_linear_168_3517" x1="15.9972" y1="-5.19112" x2="15.9972" y2="27.7957" gradientUnits="userSpaceOnUse">
<stop stop-color="#888A8D"/>
<stop offset="0.00561798" stop-color="#888A8D"/>
<stop offset="0.2215" stop-color="#8D8F92"/>
<stop offset="0.7191" stop-color="#D6D6D6"/>
<stop offset="0.8045" stop-color="#C1C1C2"/>
<stop offset="0.9811" stop-color="#919396"/>
<stop offset="1" stop-color="#8C8E91"/>
</linearGradient>
</defs>
</svg>
