<svg width="32" height="26" viewBox="0 0 32 26" fill="currentColor" xmlns="http://www.w3.org/2000/svg">
<path d="M26.3314 12.2909C25.3001 12.0073 24.0274 11.6582 22.9961 10.9455C20.3191 9.07636 19.595 3.66545 19.5877 3.60727L19.1269 0L18.7392 3.62182C18.7319 3.65818 18.3223 7.38182 16.9911 8.85818C15.8062 10.1673 14.3799 10.6764 13.3339 11.0545C12.3392 11.4109 11.5639 11.6073 9.86697 11.84C5.03954 12.5091 0 13.12 0 13.12C0 13.12 7.40206 13.7455 8.71131 13.8109C11.3006 13.9345 12.6171 14.0873 13.6558 14.5236C14.5627 14.9018 16.2523 15.7818 17.3202 17.4182C18.4027 19.0691 18.7538 22.0218 18.7538 22.0509L19.1634 25.6L19.6315 21.8691C19.7339 20.9964 19.9826 18.9455 20.597 17.8255C21.4528 16.2618 22.8791 15.1127 24.6199 14.5891C25.7829 14.2327 27.2457 13.9055 28.9573 13.6073L32 13.0691L28.9207 12.7709C28.0503 12.6836 27.1799 12.5236 26.3314 12.2909ZM23.4057 13.5927C21.7966 14.08 20.4654 15.1491 19.6608 16.6182C19.3975 17.0982 19.2146 17.7382 19.0757 18.3636C18.8782 17.6364 18.5856 16.8436 18.1833 16.2255C17.1959 14.7127 15.6599 13.9127 14.8334 13.5709C13.8606 13.1636 12.7195 13.1127 10.5033 13.0036H10.496H10.4887C10.2034 12.9891 9.6256 12.9673 8.92343 12.9382C9.74994 12.8436 10.635 12.7345 11.5346 12.6036C12.939 12.4073 13.6485 12.3055 14.5408 11.9855C15.477 11.6509 16.7497 11.1927 17.8469 9.97818C18.4832 9.27273 18.8855 8.09455 19.1342 7.09091C19.5511 8.64 20.363 10.7636 21.8697 11.8182C22.8206 12.48 23.9397 12.7855 24.8466 13.0327C24.971 13.0691 25.088 13.0982 25.2123 13.1273C24.5467 13.28 23.9397 13.4327 23.4057 13.5927Z" fill="currentColor"/>
</svg>
