<svg width="25" height="35" viewBox="0 0 25 35" fill="none" xmlns="http://www.w3.org/2000/svg">
<path d="M20.0029 2.67444L19.2281 3.46133C18.9316 3.76212 18.4586 3.75943 18.1649 3.45816L16.6321 1.90001L15.0951 3.46128C14.7982 3.76207 14.3257 3.75938 14.0325 3.45811L12.4987 1.89996L10.9622 3.46123C10.6653 3.76202 10.1928 3.75933 9.89955 3.45806L8.36583 1.89991L6.82972 3.46118C6.5323 3.76197 6.0598 3.75928 5.76568 3.45801L4.99504 2.67431V17.127H20.0022V2.67431L20.0029 2.67444ZM9.55515 11.5802L10.9815 11.4327C11.1432 12.3707 11.6211 12.8766 12.5579 12.8766C13.1745 12.8766 13.9761 12.6164 13.9761 11.8388C13.9761 11.0295 12.7241 10.8798 12.1365 10.7272C10.9806 10.4255 9.82791 9.89639 9.82791 8.4545C9.82791 8.06973 9.93267 7.70767 10.1401 7.37223C10.5296 6.74722 11.1988 6.46916 11.8834 6.37859V5.00233H13.1152V6.38416C14.346 6.55066 15.1845 7.30167 15.2307 8.65081L13.7633 8.70355C13.6335 7.8891 13.2165 7.60784 12.4449 7.60784C11.9984 7.60784 11.2245 7.74627 11.2245 8.35248C11.2245 9.00505 12.3284 9.20624 12.7822 9.31855C14.1889 9.66328 15.4433 10.0986 15.4433 11.8301C15.4433 13.249 14.3832 14.002 13.1155 14.1351V15.5033H11.8836V14.1197C10.4788 13.9246 9.72201 13.0425 9.55533 11.5806L9.55515 11.5802ZM5.60758 29.0748C7.14766 29.0748 8.39967 30.379 8.39967 31.9843C8.39967 33.5866 7.14579 34.8932 5.60758 34.8932C4.06655 34.8932 2.81405 33.589 2.81405 31.9843C2.81405 30.3776 4.06445 29.0748 5.60758 29.0748ZM5.60758 30.6627C4.9063 30.6627 4.33847 31.2543 4.33847 31.9843C4.33847 32.7162 4.90448 33.3059 5.60758 33.3059C6.3112 33.3059 6.8758 32.718 6.8758 31.9843C6.8758 31.2518 6.30978 30.6627 5.60758 30.6627ZM12.4986 29.0748C14.0391 29.0748 15.2916 30.379 15.2916 31.9843C15.2916 33.5866 14.0373 34.8932 12.4986 34.8932C10.958 34.8932 9.70599 33.589 9.70599 31.9843C9.70599 30.3776 10.9569 29.0748 12.4986 29.0748ZM12.4986 30.6627C11.7978 30.6627 11.2299 31.2543 11.2299 31.9843C11.2299 32.7162 11.7959 33.3059 12.4986 33.3059C13.2033 33.3059 13.7673 32.718 13.7673 31.9843C13.7673 31.2518 13.2017 30.6627 12.4986 30.6627ZM19.3913 29.0748C20.9314 29.0748 22.1834 30.379 22.1834 31.9843C22.1834 33.5866 20.9295 34.8932 19.3913 34.8932C17.8503 34.8932 16.5983 33.589 16.5983 31.9843C16.5983 30.3776 17.8492 29.0748 19.3913 29.0748ZM19.3913 30.6627C18.6901 30.6627 18.1222 31.2543 18.1222 31.9843C18.1222 32.7162 18.6882 33.3059 19.3913 33.3059C20.0959 33.3059 20.6595 32.718 20.6595 31.9843C20.6595 31.2518 20.0935 30.6627 19.3913 30.6627ZM4.53178 20.0326H20.4671C21.3924 20.0326 22.1541 20.8265 22.1541 21.7899V26.0121C22.1541 26.976 21.3924 27.7695 20.4671 27.7695H4.53178C3.60647 27.7695 2.84477 26.976 2.84477 26.0121V21.7899C2.84477 20.8265 3.60647 20.0326 4.53178 20.0326ZM20.4671 21.6204H4.53178C4.43991 21.6204 4.36913 21.6942 4.36913 21.7899V26.0121C4.36913 26.1083 4.43991 26.1821 4.53178 26.1821H20.4671C20.5595 26.1821 20.6303 26.1083 20.6303 26.0121V21.7899C20.6303 21.6942 20.5595 21.6204 20.4671 21.6204ZM0 35V18.7967C0 16.6741 1.47282 14.8445 3.47201 14.4663L3.47435 0.793607C3.47435 0.10266 4.27919 -0.26572 4.76411 0.225974L6.30064 1.78774L7.83346 0.229099C8.12713 -0.0716863 8.60055 -0.0755926 8.89707 0.225925L10.4336 1.7877L11.9669 0.22905C12.2606 -0.0717351 12.7331 -0.0756414 13.0296 0.225876L14.5666 1.78765L16.0994 0.229001C16.3935 -0.0717839 16.8656 -0.0756902 17.163 0.225828L18.6995 1.7876L20.1953 0.267328C20.654 -0.27296 21.5285 0.0578503 21.5285 0.79346V14.4699C23.5248 14.8473 25 16.675 25 18.7961V34.9995H23.4761V18.7961C23.4761 17.5464 22.675 16.4421 21.5285 16.0922V17.9199C21.5285 18.3579 21.1872 18.7129 20.7658 18.7129H4.23407C3.81407 18.7129 3.47237 18.3579 3.47237 17.9199V16.0954C2.3277 16.4448 1.52472 17.5471 1.52472 18.7959V34.9992H0.000363463L0 35Z" fill="#8A182A"/>
</svg>
