<svg width="12" height="12" viewBox="0 0 12 12" fill="none" xmlns="http://www.w3.org/2000/svg">
<path d="M6 12C2.6863 12 0 9.31366 0 6C0 2.68634 2.68634 0 6 0C9.31366 0 12 2.68634 12 6C12 9.31366 9.31366 12 6 12ZM3.76282 5.85421C3.50468 5.61042 3.09781 5.62208 2.85402 5.88007C2.61023 6.13821 2.62189 6.54508 2.88003 6.78887L4.80852 8.61038C5.0843 8.87076 5.5245 8.83713 5.75739 8.53758L8.75746 4.68044C8.9754 4.40018 8.92487 3.99629 8.64461 3.77822C8.36435 3.56029 7.96047 3.61081 7.74254 3.89107L5.17697 7.18966L3.76282 5.85421Z" fill="#971E31"/>
</svg>
