<svg width="10" height="10" viewBox="0 0 10 10" fill="none" xmlns="http://www.w3.org/2000/svg">
<path d="M5.29851 0.173354L6.58577 2.90827H6.58595C6.63093 3.0044 6.7181 3.07136 6.81927 3.08713L9.70006 3.52629C9.83239 3.54684 9.94196 3.64424 9.9831 3.77761C10.0241 3.91097 9.98922 4.05736 9.8933 4.15476L7.81053 6.28487V6.28506C7.73894 6.35807 7.70533 6.46281 7.72022 6.56646L8.22204 9.57488C8.24112 9.71026 8.18756 9.84582 8.08254 9.92727C7.97751 10.0087 7.83818 10.0228 7.72021 9.96414L5.14309 8.54413V8.54395C5.05365 8.49405 4.94635 8.49405 4.85691 8.54395L2.27979 9.96396V9.96414C2.16182 10.0228 2.02249 10.0087 1.91747 9.92727C1.81244 9.84582 1.75888 9.71026 1.77796 9.57488L2.27979 6.56646C2.29536 6.46189 2.26176 6.35605 2.18947 6.2823L0.106698 4.1522C0.0107781 4.05461 -0.0240568 3.9084 0.016904 3.77504C0.0578648 3.64168 0.167613 3.54427 0.299941 3.52372L3.18073 3.08456C3.28173 3.0686 3.36907 3.00183 3.41406 2.90571L4.70131 0.170785V0.170602C4.76678 0.0638404 4.87968 -0.000364738 5.00063 1.55893e-06C5.12176 0.000551849 5.2341 0.0660386 5.29851 0.173354Z" fill="#FFBC53"/>
</svg>
