<svg width="15" height="20" viewBox="0 0 15 20" fill="none" xmlns="http://www.w3.org/2000/svg">
<path d="M12.5 0H2.5C1.12188 0 0 1.12109 0 2.5V19.3398C0 19.5681 0.124531 19.7785 0.324688 19.8883C0.524883 19.9969 0.767656 19.9884 0.960625 19.8675L7.5 15.707L14.0391 19.8672C14.1406 19.9688 14.2578 20 14.375 20C14.4788 20 14.5813 19.9744 14.6753 19.9231C14.875 19.8125 15 19.6016 15 19.3398V2.5C15 1.12109 13.8789 0 12.5 0ZM13.75 18.2383L7.83594 14.4742C7.69922 14.4062 7.61719 14.375 7.5 14.375C7.38281 14.375 7.26684 14.4073 7.1643 14.4727L1.25 18.2383V2.5C1.25 1.81094 1.81016 1.25 2.5 1.25H12.5C13.1898 1.25 13.75 1.81094 13.75 2.5V18.2383Z" fill="#BDC1CB"/>
</svg>
