<svg width="12" height="16" viewBox="0 0 12 16" fill="black" xmlns="http://www.w3.org/2000/svg">
<path d="M10 0H2C0.8975 0 0 0.896875 0 2V15.4719C0 15.6545 0.099625 15.8228 0.25975 15.9106C0.419906 15.9975 0.614125 15.9907 0.7685 15.894L6 12.5656L11.2312 15.8938C11.3125 15.975 11.4062 16 11.5 16C11.583 16 11.665 15.9795 11.7402 15.9385C11.9 15.85 12 15.6813 12 15.4719V2C12 0.896875 11.1031 0 10 0ZM11 14.5906L6.26875 11.5794C6.15938 11.525 6.09375 11.5 6 11.5C5.90625 11.5 5.81347 11.5259 5.73144 11.5781L1 14.5906V2C1 1.44875 1.44813 1 2 1H10C10.5519 1 11 1.44875 11 2V14.5906Z" fill="#971E31"/>
</svg>
