<svg width="21" height="22" viewBox="0 0 21 22" fill="none" xmlns="http://www.w3.org/2000/svg">
<path d="M6.66792 10.9613C6.66792 8.91172 8.38379 7.18008 10.5003 7.18008C12.6168 7.18008 14.3327 8.91172 14.3327 10.9613C14.3327 13.0883 12.6168 14.7812 10.5003 14.7812C8.38379 14.7812 6.66792 13.0883 6.66792 10.9613ZM10.5003 8.55508C9.15462 8.55508 8.06152 9.67227 8.06152 10.9613C8.06152 12.3277 9.15462 13.3676 10.5003 13.3676C11.846 13.3676 12.9391 12.3277 12.9391 10.9613C12.9391 9.67227 11.846 8.55508 10.5003 8.55508ZM2.21146 9.90859L0.455098 8.32734C-0.0291768 7.89336 -0.140664 7.18437 0.186831 6.62578L1.50378 4.37422C1.83127 3.81477 2.50935 3.55566 3.13342 3.75203L5.39627 4.46445C5.97984 4.02016 6.62437 3.65062 7.31246 3.37004L7.822 1.08109C7.96136 0.449883 8.5275 0 9.18511 0H11.8155C12.4731 0 13.0393 0.449883 13.1786 1.08109L13.6882 3.37004C14.3371 3.65062 15.0208 4.02016 15.6044 4.46445L17.869 3.75203C18.4917 3.55566 19.1711 3.81477 19.4977 4.37422L20.8129 6.62578C21.1395 7.18437 21.0307 7.89336 20.5473 8.32734L18.7879 9.90859C18.8358 10.2652 18.8619 10.6305 18.8619 10.9613C18.8619 11.3695 18.8358 11.7348 18.7879 12.0914L20.5473 13.6727C21.0307 14.1066 21.1395 14.8156 20.8129 15.3742L19.4977 17.6258C19.1711 18.1844 18.4917 18.4422 17.869 18.2488L15.6044 17.5355C15.0208 17.9781 14.3371 18.3477 13.6882 18.6313L13.1786 20.9172C13.0393 21.5488 12.4731 22 11.8155 22H9.18511C8.5275 22 7.96136 21.5488 7.822 20.9172L7.31246 18.6313C6.62437 18.3477 5.97984 17.9781 5.39627 17.5355L3.13342 18.2488C2.50935 18.4422 1.83127 18.1844 1.50378 17.6258L0.186831 15.3742C-0.140664 14.8156 -0.0291768 14.1066 0.455098 13.6727L2.21146 12.0914C2.16356 11.7348 2.13874 11.3695 2.13874 10.9613C2.13874 10.6305 2.16356 10.2652 2.21146 9.90859ZM6.24984 5.55156L5.67063 5.99414L2.71055 5.06172L1.3936 7.31328L3.68824 9.37578L3.59287 10.0891C3.5528 10.3855 3.53233 10.6906 3.53233 10.9613C3.53233 11.3094 3.5528 11.6145 3.59287 11.9109L3.68824 12.6242L1.3936 14.6867L2.71055 16.9383L5.67063 16.0059L6.24984 16.4484C6.73325 16.818 7.27327 17.1273 7.84377 17.3207L8.51879 17.6344L9.18511 20.625H11.8155L12.4818 17.6344L13.1177 17.3207C13.7274 17.1273 14.2674 16.818 14.7508 16.4484L15.33 16.0059L18.2914 16.9383L19.6066 14.6867L17.3115 12.6242L17.4073 11.9109C17.4465 11.6145 17.4683 11.3094 17.4683 11C17.4683 10.6906 17.4465 10.3855 17.4073 10.0891L17.3115 9.37578L19.6066 7.31328L18.2914 5.06172L15.33 5.99414L14.7508 5.55156C14.2674 5.18203 13.7274 4.87266 13.1177 4.64062L12.4818 4.36562L11.8155 1.375H9.18511L8.51879 4.36562L7.84377 4.64062C7.27327 4.87266 6.73325 5.18203 6.24984 5.55156Z" fill="#111827"/>
</svg>
