<svg width="8" height="8" viewBox="0 0 8 8" fill="none" xmlns="http://www.w3.org/2000/svg">
<path d="M4 0C5.06088 0 6.0783 0.421425 6.82846 1.17155C7.57858 1.92172 8 2.93917 8 4.00005C8 5.06088 7.57858 6.07837 6.82846 6.82839C6.0783 7.57856 5.06086 8 4 8C2.93914 8 1.9217 7.57858 1.17154 6.82839C0.42142 6.07826 0 5.06077 0 4.00005C0 2.93915 0.42142 1.92172 1.17154 1.17155C1.9217 0.421425 2.93914 0 4 0ZM3.73334 4.13608L4.94397 5.01071C5.02129 5.06184 5.11956 5.06922 5.20361 5.03012C5.2876 4.99101 5.34534 4.91113 5.35599 4.81904C5.36671 4.72701 5.32885 4.636 5.25599 4.57869L4.26666 3.86137V1.60004C4.26666 1.50474 4.21582 1.41671 4.13332 1.36909C4.05082 1.32147 3.94916 1.32147 3.86666 1.36909C3.78416 1.41671 3.73333 1.50474 3.73333 1.60004L3.73334 4.13608Z" fill="#B3B3B3"/>
</svg>
