<svg width="16" height="16" viewBox="0 0 16 16" fill="none" xmlns="http://www.w3.org/2000/svg">
<path d="M12.4415 14.733C12.4536 14.7299 12.461 14.7261 12.4648 14.7238C12.4652 14.7235 12.4655 14.7233 12.4659 14.7231C12.4657 14.7223 12.4656 14.7213 12.4654 14.7203L12.4646 14.7159L12.4646 14.7159L11.6894 10.2559L11.6207 9.86034L11.9117 9.58378L15.2448 6.41628L15.248 6.41321C15.2469 6.4096 15.2454 6.40675 15.2435 6.40424C15.2414 6.40145 15.2377 6.39765 15.2312 6.39371C15.2256 6.39034 15.2159 6.38565 15.2004 6.38232L10.6418 5.72562L10.2547 5.66985L10.0788 5.32052L8.03936 1.26919C8.03929 1.26905 8.03922 1.26891 8.03914 1.26877C8.03682 1.26451 8.03099 1.25763 8.02369 1.25219C7.99681 1.24517 7.96497 1.25606 7.94799 1.28227L5.91513 5.32052L5.73927 5.66985L5.35216 5.72562L0.781181 6.38409L12.4415 14.733ZM12.4415 14.733C12.4331 14.7342 12.4256 14.7355 12.419 14.7366L12.4101 14.732L8.3276 12.6285L7.98409 12.4515L7.64058 12.6285L3.55808 14.7318L3.55807 14.7318L3.55387 14.734C3.54661 14.7378 3.54234 14.7384 3.54027 14.7385C3.53765 14.7388 3.53421 14.7385 3.52996 14.7372C3.52359 14.7352 3.51528 14.7307 3.50751 14.7207C3.50673 14.718 3.50608 14.715 3.50562 14.7121C3.50531 14.7101 3.50514 14.7085 3.50506 14.7073L4.27877 10.2559L4.3472 9.86218L4.05862 9.58579L0.756242 6.42286C0.752188 6.41864 0.750662 6.4159 0.750206 6.41495C0.75071 6.4139 0.752532 6.41064 0.75766 6.40561L12.4415 14.733ZM12.2993 14.7654C12.2983 14.7656 12.2984 14.7656 12.2995 14.7653L12.2993 14.7654Z" stroke="#686868" stroke-width="1.5"/>
</svg>
