<svg width="26" height="25" viewBox="0 0 26 25" fill="none" xmlns="http://www.w3.org/2000/svg">
<path d="M20.196 25C19.986 25 19.776 24.9578 19.6082 24.8312L12.9741 21.3253L6.34006 24.8309C5.71037 25.1688 4.95447 24.9154 4.61849 24.2817C4.49255 24.0283 4.45067 23.7325 4.49255 23.4791L5.75226 16.0457L0.377822 10.7662C-0.125941 10.2595 -0.125941 9.457 0.377822 8.95025C0.587821 8.73901 0.79782 8.61232 1.09158 8.57019L8.52349 7.47214L11.8404 0.714259C12.1763 0.0808423 12.932 -0.172844 13.5619 0.122973C13.8138 0.249657 14.0238 0.460897 14.1498 0.714259L17.4666 7.47214L24.8986 8.57019C25.6123 8.69688 26.0742 9.33029 25.9902 10.0486C25.9483 10.3444 25.8223 10.5978 25.6123 10.7666L20.1961 16.0457L21.4558 23.4792C21.5817 24.1971 21.1198 24.8309 20.4061 24.9576C20.3639 24.9576 20.2801 25 20.1961 25L20.196 25Z" fill="#FFB612"/>
</svg>
