<svg width="31" height="32" viewBox="0 0 31 32" fill="none" xmlns="http://www.w3.org/2000/svg">
<path d="M0.892466 21.3524C3.7338 29.6768 12.5539 34.0292 20.5773 31.074C28.6008 28.1187 32.7958 18.975 29.9474 10.6506C27.7053 4.09638 21.7618 0 15.4235 0C13.7102 0 11.9758 0.299914 10.2696 0.921686C2.2391 3.87693 -1.95592 13.0206 0.892466 21.3524Z" fill="url(#paint0_linear_168_3658)"/>
<path d="M25.3769 15.4911C24.3829 15.2075 23.1564 14.8584 22.1625 14.1456C19.5825 12.2766 18.8846 6.86565 18.8776 6.80747L18.4335 3.2002L18.0599 6.82201C18.0528 6.85838 17.6581 10.582 16.3751 12.0584C15.2332 13.3675 13.8586 13.8766 12.8506 14.2547C11.8919 14.6111 11.1447 14.8075 9.50927 15.0402C4.85685 15.7093 0 16.3202 0 16.3202C0 16.3202 7.13372 16.9457 8.39551 17.0111C10.8909 17.1347 12.1597 17.2875 13.1607 17.7238C14.0348 18.102 15.6632 18.982 16.6923 20.6184C17.7356 22.2693 18.074 25.222 18.074 25.2511L18.4687 28.8002L18.9199 25.0693C19.0185 24.1966 19.2582 22.1457 19.8503 21.0257C20.6751 19.462 22.0497 18.3129 23.7274 17.7893C24.8482 17.4329 26.258 17.1056 27.9075 16.8075L30.8399 16.2693L27.8722 15.9711C27.0334 15.8838 26.1946 15.7238 25.3769 15.4911ZM22.5572 16.7929C21.0064 17.2802 19.7235 18.3493 18.9481 19.8184C18.6943 20.2984 18.5181 20.9384 18.3841 21.5638C18.1938 20.8366 17.9118 20.0438 17.5241 19.4256C16.5725 17.9129 15.0922 17.1129 14.2956 16.7711C13.3581 16.3638 12.2584 16.3129 10.1225 16.2038H10.1155H10.1084C9.83353 16.1893 9.27665 16.1675 8.59993 16.1384C9.39649 16.0438 10.2494 15.9347 11.1165 15.8038C12.4699 15.6075 13.1537 15.5056 14.0137 15.1856C14.916 14.8511 16.1425 14.3929 17.1999 13.1784C17.8131 12.4729 18.2008 11.2947 18.4405 10.2911C18.8423 11.8402 19.6248 13.9638 21.0769 15.0184C21.9933 15.6802 23.0718 15.9857 23.9459 16.2329C24.0657 16.2693 24.1785 16.2984 24.2983 16.3275C23.6569 16.4802 23.0718 16.6329 22.5572 16.7929Z" fill="url(#paint1_linear_168_3658)"/>
<defs>
<linearGradient id="paint0_linear_168_3658" x1="15.4169" y1="-1.2749" x2="15.4169" y2="39.5791" gradientUnits="userSpaceOnUse">
<stop stop-color="#871729"/>
<stop offset="0.2873" stop-color="#971E31"/>
<stop offset="0.4223" stop-color="#A22335"/>
<stop offset="0.527" stop-color="#AE2739"/>
<stop offset="0.7346" stop-color="#FACDDA"/>
<stop offset="0.7859" stop-color="#E19EA3"/>
<stop offset="0.8576" stop-color="#CB6F6E"/>
<stop offset="0.9183" stop-color="#BC4D50"/>
<stop offset="0.9651" stop-color="#B4353F"/>
<stop offset="0.9922" stop-color="#B12B3A"/>
<stop offset="1" stop-color="#B12B3A"/>
</linearGradient>
<linearGradient id="paint1_linear_168_3658" x1="15.4172" y1="-5.19112" x2="15.4172" y2="27.7957" gradientUnits="userSpaceOnUse">
<stop stop-color="#888A8D"/>
<stop offset="0.00561798" stop-color="#888A8D"/>
<stop offset="0.2215" stop-color="#8D8F92"/>
<stop offset="0.7191" stop-color="#D6D6D6"/>
<stop offset="0.8045" stop-color="#C1C1C2"/>
<stop offset="0.9811" stop-color="#919396"/>
<stop offset="1" stop-color="#8C8E91"/>
</linearGradient>
</defs>
</svg>
