<svg width="21" height="24" viewBox="0 0 21 24" fill="none" xmlns="http://www.w3.org/2000/svg">
<g clip-path="url(#clip0_722_1225)">
<path d="M17.3946 18.8945C17.1029 19.1861 16.6256 19.1861 16.334 18.8945L10.5003 13.0608L4.6667 18.8945C4.37356 19.1876 3.89885 19.1879 3.60571 18.8948C3.31257 18.6016 3.31436 18.1255 3.60604 17.8338L9.43967 12.0002L3.60604 6.16653C3.3129 5.87339 3.3127 5.39921 3.60571 5.10621C3.89772 4.81419 4.37369 4.81287 4.6667 5.10587L10.5003 10.9395L16.334 5.10587C16.6271 4.81273 17.1012 4.81307 17.3943 5.10621C17.6874 5.39934 17.6876 5.87353 17.3946 6.16653L11.561 12.0002L17.3946 17.8338C17.6863 18.1255 17.6863 18.6028 17.3946 18.8945Z" fill="#111827"/>
</g>
<defs>
<clipPath id="clip0_722_1225">
<rect width="21" height="24" fill="white"/>
</clipPath>
</defs>
</svg>
