<svg width="75" height="25" viewBox="0 0 75 25" fill="none" xmlns="http://www.w3.org/2000/svg" xmlns:xlink="http://www.w3.org/1999/xlink">
<rect x="28.0249" y="7.15771" width="46.3683" height="10.5742" fill="url(#pattern0)"/>
<path d="M22.0988 8.77583C21.4925 4.84753 18.4913 1.73343 14.7054 1.10427C13.5589 0.913931 12.387 0.813477 11.1895 0.813477C9.99212 0.813477 8.82017 0.913931 7.6737 1.10427C3.88781 1.73343 0.886603 4.84753 0.280248 8.77583C0.096813 9.96014 0 11.1815 0 12.4239C0 13.6664 0.096813 14.8824 0.280248 16.072C0.886603 20.0003 3.88781 23.1144 7.6737 23.7436C8.82017 23.9339 9.99212 24.0344 11.1895 24.0344C12.387 24.0344 13.5589 23.9339 14.7054 23.7436C18.4913 23.1144 21.4925 20.0003 22.0988 16.072C22.2823 14.8877 22.3791 13.6664 22.3791 12.4239C22.3791 11.1815 22.2823 9.96543 22.0988 8.77583Z" fill="#0B5CFF"/>
<path d="M13.5998 14.967C13.5998 15.6544 13.0648 16.2095 12.4024 16.2095H7.19487C5.87006 16.2095 4.79492 15.0939 4.79492 13.7193V9.98661C4.79492 9.29928 5.32994 8.74414 5.99235 8.74414H11.1999C12.5247 8.74414 13.5998 9.85972 13.5998 11.2344V14.967ZM16.6265 9.07723L14.8686 10.4466C14.5679 10.6792 14.3896 11.0493 14.3896 11.4406V13.5131C14.3896 13.9043 14.5679 14.2744 14.8686 14.5071L16.6265 15.8764C17.0239 16.1831 17.5844 15.8923 17.5844 15.3794V9.57421C17.5844 9.06137 17.0188 8.77058 16.6265 9.07723V9.07723Z" fill="white"/>
<defs>
<pattern id="pattern0" patternContentUnits="objectBoundingBox" width="1" height="1">
<use xlink:href="#image0_168_3649" transform="matrix(0.0014253 0 0 0.00625 -0.00241703 0)"/>
</pattern>
<svg width="75" height="25" viewBox="0 0 75 25" fill="none" xmlns="http://www.w3.org/2000/svg" xmlns:xlink="http://www.w3.org/1999/xlink">
<rect x="28.0249" y="7.15771" width="46.3683" height="10.5742" fill="url(#pattern0)"/>
<path d="M22.0988 8.77583C21.4925 4.84753 18.4913 1.73343 14.7054 1.10427C13.5589 0.913931 12.387 0.813477 11.1895 0.813477C9.99212 0.813477 8.82017 0.913931 7.6737 1.10427C3.88781 1.73343 0.886603 4.84753 0.280248 8.77583C0.096813 9.96014 0 11.1815 0 12.4239C0 13.6664 0.096813 14.8824 0.280248 16.072C0.886603 20.0003 3.88781 23.1144 7.6737 23.7436C8.82017 23.9339 9.99212 24.0344 11.1895 24.0344C12.387 24.0344 13.5589 23.9339 14.7054 23.7436C18.4913 23.1144 21.4925 20.0003 22.0988 16.072C22.2823 14.8877 22.3791 13.6664 22.3791 12.4239C22.3791 11.1815 22.2823 9.96543 22.0988 8.77583Z" fill="#0B5CFF"/>
<path d="M13.5998 14.967C13.5998 15.6544 13.0648 16.2095 12.4024 16.2095H7.19487C5.87006 16.2095 4.79492 15.0939 4.79492 13.7193V9.98661C4.79492 9.29928 5.32994 8.74414 5.99235 8.74414H11.1999C12.5247 8.74414 13.5998 9.85972 13.5998 11.2344V14.967ZM16.6265 9.07723L14.8686 10.4466C14.5679 10.6792 14.3896 11.0493 14.3896 11.4406V13.5131C14.3896 13.9043 14.5679 14.2744 14.8686 14.5071L16.6265 15.8764C17.0239 16.1831 17.5844 15.8923 17.5844 15.3794V9.57421C17.5844 9.06137 17.0188 8.77058 16.6265 9.07723V9.07723Z" fill="white"/>
<defs>
<pattern id="pattern0" patternContentUnits="objectBoundingBox" width="1" height="1">
<use xlink:href="#image0_168_3649" transform="matrix(0.0014253 0 0 0.00625 -0.00241703 0)"/>
</pattern>
</defs>
</svg>

"/>
</defs>
</svg>
